<svg width="87" height="71" viewBox="0 0 87 71" fill="none" xmlns="http://www.w3.org/2000/svg">
<path d="M75.68 33.45C72.7595 33.4422 69.9599 32.2827 67.8892 30.2232C65.8184 28.1637 64.6437 25.3704 64.62 22.45V16.26C64.6199 14.9425 65.1398 13.6783 66.0667 12.742C66.9936 11.8058 68.2526 11.2732 69.57 11.26H81.79C83.1074 11.2732 84.3664 11.8058 85.2933 12.742C86.2201 13.6783 86.7401 14.9425 86.74 16.26V22.46C86.7137 25.3787 85.5378 28.1694 83.4673 30.2267C81.3969 32.2841 78.5988 33.4422 75.68 33.45ZM68.62 22.45C68.6887 24.2751 69.4621 26.0026 70.7776 27.2696C72.0932 28.5365 73.8486 29.2444 75.675 29.2444C77.5014 29.2444 79.2568 28.5365 80.5723 27.2696C81.8879 26.0026 82.6613 24.2751 82.73 22.45V16.26C82.7303 16.0032 82.6318 15.7562 82.455 15.57C82.2781 15.3838 82.0364 15.2728 81.78 15.26H69.57C69.3135 15.2728 69.0718 15.3838 68.895 15.57C68.7181 15.7562 68.6197 16.0032 68.62 16.26V22.45Z" fill="white"/>
<path d="M80 15.31C79.4696 15.31 78.9609 15.0993 78.5858 14.7242C78.2107 14.3491 78 13.8404 78 13.31V5.01999C78 4.48956 78.2107 3.98085 78.5858 3.60578C78.9609 3.2307 79.4696 3.01999 80 3.01999C80.5304 3.01999 81.0391 3.2307 81.4142 3.60578C81.7893 3.98085 82 4.48956 82 5.01999V13.31C82 13.8404 81.7893 14.3491 81.4142 14.7242C81.0391 15.0993 80.5304 15.31 80 15.31Z" fill="white"/>
<path d="M71.38 15.31C70.8496 15.31 70.3409 15.0993 69.9658 14.7242C69.5907 14.3491 69.38 13.8404 69.38 13.31V5.01999C69.38 4.48956 69.5907 3.98085 69.9658 3.60578C70.3409 3.2307 70.8496 3.01999 71.38 3.01999C71.9104 3.01999 72.4191 3.2307 72.7942 3.60578C73.1693 3.98085 73.38 4.48956 73.38 5.01999V13.31C73.38 13.8404 73.1693 14.3491 72.7942 14.7242C72.4191 15.0993 71.9104 15.31 71.38 15.31Z" fill="white"/>
<path d="M39 70.41C35.3271 70.4199 31.7338 69.3398 28.6751 67.3064C25.6163 65.2731 23.2296 62.3778 21.8172 58.9873C20.4048 55.5968 20.0301 51.8635 20.7406 48.2599C21.4511 44.6563 23.2148 41.3446 25.8084 38.7439C28.4021 36.1432 31.7091 34.3706 35.3107 33.6504C38.9124 32.9302 42.6467 33.2948 46.041 34.6981C49.4353 36.1014 52.337 38.4802 54.3786 41.5334C56.4202 44.5867 57.51 48.1771 57.51 51.85C57.5021 56.7614 55.551 61.47 52.0829 64.9476C48.6147 68.4251 43.9113 70.3889 39 70.41ZM39 37.3C36.1178 37.2901 33.2975 38.1359 30.8963 39.7302C28.4951 41.3245 26.6212 43.5955 25.5118 46.2557C24.4024 48.9159 24.1075 51.8455 24.6644 54.6734C25.2214 57.5014 26.6051 60.1004 28.6404 62.1412C30.6756 64.1821 33.2708 65.573 36.0972 66.1377C38.9236 66.7024 41.854 66.4156 44.5172 65.3136C47.1805 64.2115 49.4567 62.3438 51.0576 59.947C52.6585 57.5502 53.512 54.7323 53.51 51.85C53.5048 47.9996 51.9756 44.3079 49.2568 41.5815C46.5379 38.8552 42.8504 37.3159 39 37.3Z" fill="white"/>
<path d="M39 70.41C34.1444 70.4199 29.3949 68.9891 25.3528 66.2986C21.3106 63.6081 18.1575 59.779 16.2924 55.2958C14.4274 50.8125 13.9343 45.8768 14.8755 41.1132C15.8167 36.3496 18.15 31.9724 21.58 28.5354C25.0099 25.0984 29.3825 22.7562 34.1441 21.8053C38.9058 20.8543 43.8425 21.3374 48.3295 23.1933C52.8165 25.0492 56.6521 28.1945 59.3508 32.2311C62.0495 36.2678 63.49 41.0143 63.49 45.87C63.4848 52.3681 60.9045 58.5994 56.3143 63.1989C51.7241 67.7985 45.4981 70.3915 39 70.41ZM39 25.34C34.9351 25.3301 30.9586 26.5266 27.574 28.778C24.1894 31.0294 21.549 34.2344 19.987 37.9873C18.425 41.7402 18.0117 45.8722 18.7994 49.8601C19.5871 53.848 21.5403 57.5126 24.4119 60.3898C27.2835 63.2669 30.9442 65.2274 34.9306 66.0228C38.917 66.8183 43.0498 66.413 46.8057 64.8584C50.5616 63.3037 53.7718 60.6695 56.0298 57.2893C58.2878 53.9091 59.492 49.935 59.49 45.87C59.4848 40.4337 57.3256 35.2209 53.4853 31.3731C49.6449 27.5252 44.4364 25.3559 39 25.34Z" fill="white"/>
<path d="M39 70.41C28.6566 70.41 18.7368 66.3011 11.4228 58.9872C4.10892 51.6732 0 41.7534 0 31.41V2C0 1.46957 0.210714 0.96086 0.585786 0.585787C0.960859 0.210714 1.46957 0 2 0C2.53043 0 3.03914 0.210714 3.41421 0.585787C3.78929 0.96086 4 1.46957 4 2V31.45C4.42982 40.4327 8.30076 48.9053 14.8099 55.1104C21.3191 61.3156 29.967 64.7772 38.96 64.7772C47.953 64.7772 56.6009 61.3156 63.1101 55.1104C69.6192 48.9053 73.4902 40.4327 73.92 31.45C73.92 30.9196 74.1307 30.4109 74.5058 30.0358C74.8809 29.6607 75.3896 29.45 75.92 29.45C76.4504 29.45 76.9591 29.6607 77.3342 30.0358C77.7093 30.4109 77.92 30.9196 77.92 31.45C77.9094 41.7727 73.8068 51.6701 66.5113 58.9731C59.2159 66.2761 49.3227 70.3888 39 70.41Z" fill="white"/>
</svg>
