<svg width="22" height="22" viewBox="0 0 22 22" fill="none" xmlns="http://www.w3.org/2000/svg">
<path d="M4.09879 1.27036C3.31774 0.489308 2.05141 0.489308 1.27036 1.27036C0.489311 2.05141 0.489311 3.31774 1.27036 4.09878L4.09879 1.27036ZM17.9012 20.7296C18.6823 21.5107 19.9486 21.5107 20.7297 20.7296C21.5107 19.9486 21.5107 18.6823 20.7297 17.9012L17.9012 20.7296ZM20.7296 4.09878C21.5107 3.31774 21.5107 2.05141 20.7296 1.27036C19.9486 0.489308 18.6823 0.489308 17.9012 1.27036L20.7296 4.09878ZM1.27036 17.9012C0.489308 18.6823 0.489308 19.9486 1.27036 20.7296C2.05141 21.5107 3.31774 21.5107 4.09878 20.7296L1.27036 17.9012ZM1.27036 4.09878L17.9012 20.7296L20.7297 17.9012L4.09879 1.27036L1.27036 4.09878ZM17.9012 1.27036L1.27036 17.9012L4.09878 20.7296L20.7296 4.09878L17.9012 1.27036Z" fill="white"/>
</svg>
