<svg width="78" height="78" viewBox="0 0 78 78" fill="none" xmlns="http://www.w3.org/2000/svg">
<path d="M72.9 72.9V74.15H73.8759L74.1127 73.2033L72.9 72.9ZM56.39 72.9H55.14V74.15H56.39V72.9ZM56.39 68.5L57.64 68.5L57.64 68.4993L56.39 68.5ZM55.64 64.26L55.0606 63.1524L54.0907 63.6598L54.4656 64.6882L55.64 64.26ZM57.64 63.6001L58.5227 62.715L58.0734 62.2668L57.4464 62.3651L57.64 63.6001ZM61.55 67.5L62.4365 66.6188L62.4327 66.615L61.55 67.5ZM63.55 67.5L62.6661 66.6162L62.6635 66.6188L63.55 67.5ZM67.45 63.6001L67.6548 62.3669L67.0207 62.2616L66.5661 62.7162L67.45 63.6001ZM72.91 70.03L74.16 70.03L74.16 70.0278L72.91 70.03ZM72.91 72.86L74.1227 73.1633L74.16 73.014V72.86H72.91ZM50.71 72.9V74.15H50.7189L50.7279 74.1499L50.71 72.9ZM24.27 72.9H23.02V74.15H24.27V72.9ZM24.27 70.0201V68.7701H23.02V70.0201H24.27ZM24.38 67.14L23.1442 66.9521L22.9255 68.39H24.38V67.14ZM32.38 59.25L33.2647 58.367L32.8253 57.9268L32.2092 58.0118L32.38 59.25ZM37.86 64.7401L36.9753 65.6231L36.9865 65.6343L36.9979 65.6452L37.86 64.7401ZM39.86 64.7401L40.7221 65.6452L40.7335 65.6343L40.7447 65.6231L39.86 64.7401ZM45.34 59.25L45.5024 58.0106L44.891 57.9305L44.4553 58.367L45.34 59.25ZM53.51 68.5L54.76 68.5L54.76 68.492L53.51 68.5ZM53.51 72.86L53.5279 74.1099L54.76 74.0923V72.86H53.51ZM4.88 70.0701L3.63 70.0678V70.0701H4.88ZM10.34 63.64L11.2239 62.7562L10.7693 62.3016L10.1352 62.4069L10.34 63.64ZM14.24 67.54L13.3561 68.4239L13.3597 68.4275L14.24 67.54ZM16.24 67.54L17.1203 68.4275L17.1239 68.4239L16.24 67.54ZM20.14 63.64L20.344 62.4068L19.7103 62.302L19.2561 62.7562L20.14 63.64ZM22.14 64.3L23.3119 64.7349L23.6981 63.6939L22.7101 63.1876L22.14 64.3ZM21.38 68.54L22.63 68.54L22.63 68.5394L21.38 68.54ZM21.38 72.9V74.15H22.63V72.9H21.38ZM4.88 72.9H3.63V74.15H4.88V72.9ZM11.5 52.22L12.3003 53.1803L12.75 52.8055L12.75 52.22L11.5 52.22ZM14 49.7L14 48.45L13.9901 48.4501L14 49.7ZM19 49.7H20.25V48.45H19V49.7ZM11.44 53.06H10.19V54.31H11.44V53.06ZM11.44 52.27L10.6397 51.3098L10.19 51.6846V52.27H11.44ZM16.19 63.56L17.0739 64.4439L19.2077 62.31H16.19V63.56ZM15.26 64.4901L14.3761 65.3739L15.26 66.2578L16.1439 65.3739L15.26 64.4901ZM14.33 63.56V62.31H11.3123L13.4461 64.4439L14.33 63.56ZM19 56.92L19.5591 55.8021L17.75 54.8973V56.92H19ZM11.48 55.92V54.67H10.23V55.92H11.48ZM17.48 55.92L17.4811 54.67H17.48V55.92ZM19.04 55.6301H20.29V53.8074L18.5897 54.464L19.04 55.6301ZM19.04 56.94L18.4809 58.058L20.29 58.9628V56.94H19.04ZM33.25 44.27L32 44.2701L32 45.52H33.25V44.27ZM37.18 40.33L37.18 39.08L37.1768 39.08L37.18 40.33ZM44.5 40.33H45.75V39.08H44.5V40.33ZM43.7268 45.0968L44.6106 45.9807L44.6106 45.9807L43.7268 45.0968ZM33.27 45.87H32.02V47.12H33.27V45.87ZM33.27 44.27H34.52V43.02H33.27V44.27ZM41.38 59.17L42.2639 60.0539L44.3978 57.92H41.38V59.17ZM38.87 61.68L37.9861 62.5639L38.87 63.4478L39.7539 62.5639L38.87 61.68ZM36.36 59.17V57.92H33.3422L35.4761 60.0539L36.36 59.17ZM33.25 48.76V47.51H32V48.76H33.25ZM41.86 48.76L41.86 50.01L41.8626 50.01L41.86 48.76ZM44.5 48.08H45.75V45.9678L43.8984 46.9843L44.5 48.08ZM44.5 50.66H43.25V50.6864L43.2511 50.7127L44.5 50.66ZM44.1419 52.8863L45.3113 53.3279L45.3113 53.3279L44.1419 52.8863ZM33.6081 52.8863L32.4387 53.3279L32.4387 53.3279L33.6081 52.8863ZM33.25 50.66L34.4989 50.7127L34.5 50.6864V50.66H33.25ZM58.75 52.22L57.5 52.2201L57.5 52.4608L57.5894 52.6843L58.75 52.22ZM61.26 49.7L61.26 48.45L61.255 48.45L61.26 49.7ZM66.26 49.7H67.51V48.45H66.26V49.7ZM58.77 53.06H57.52V54.31H58.77V53.06ZM58.77 52.27H60.02V52.0293L59.9306 51.8058L58.77 52.27ZM63.43 63.56L64.3139 64.4439L66.4477 62.31H63.43V63.56ZM62.5 64.4901L61.6113 65.3691L62.4952 66.2626L63.3839 65.3739L62.5 64.4901ZM61.58 63.56V62.31H58.5852L60.6913 64.4391L61.58 63.56ZM66.26 56.92L67.5083 56.8556L65.01 56.92H66.26ZM58.75 56.92L59.9983 56.9845L60 56.9523V56.92H58.75ZM58.75 55.92V54.67H57.5V55.92H58.75ZM64.7 55.92L64.7055 54.67H64.7V55.92ZM66.26 55.6301H67.51V53.8005L65.8056 54.4656L66.26 55.6301ZM67.89 60.8L66.8775 60.0671L65.4419 62.05H67.89V60.8ZM69.14 56.92L67.89 56.92L67.89 56.9241L69.14 56.92ZM69.14 48.26L67.89 48.2513V48.26H69.14ZM67.7 46.82L67.7 48.0701L67.7088 48.07L67.7 46.82ZM61.28 46.82L61.28 45.57L61.2777 45.5701L61.28 46.82ZM55.88 52.22L54.63 52.2177V52.22H55.88ZM55.88 56.92L57.13 56.9209V56.92H55.88ZM57.14 60.8L57.3383 62.0342L59.3481 61.7113L58.151 60.0649L57.14 60.8ZM54.32 61.7401L53.28 62.4335L53.9049 63.3707L54.9019 62.8464L54.32 61.7401ZM45.32 56.34L44.3902 55.5045L42.739 57.3421L45.1976 57.584L45.32 56.34ZM47.49 50.67L46.24 50.67L46.24 50.6713L47.49 50.67ZM47.49 38.89H48.74V38.8687L48.7393 38.8474L47.49 38.89ZM46 37.5V38.75H46.0221L46.0441 38.7493L46 37.5ZM37.2 37.5L37.2 36.25L37.1982 36.25L37.2 37.5ZM32.3805 39.5005L33.2643 40.3844L33.2643 40.3844L32.3805 39.5005ZM30.38 44.32L29.13 44.3182V44.32H30.38ZM30.38 50.71L29.13 50.71L29.13 50.7116L30.38 50.71ZM32.55 56.3801L32.6724 57.624L35.1242 57.3828L33.4816 55.5466L32.55 56.3801ZM23.55 61.78L22.9663 62.8854L23.9641 63.4123L24.59 62.4735L23.55 61.78ZM20.73 60.84L19.719 60.1049L18.5197 61.7543L20.5337 62.0745L20.73 60.84ZM21.99 56.9601L20.74 56.9601L20.74 56.9609L21.99 56.9601ZM8.6 56.9601L9.85 56.9609V56.9601H8.6ZM9.86 60.84L10.067 62.0728L12.0587 61.7384L10.871 60.1049L9.86 60.84ZM4.2479 64.0226L5.19959 64.8331L5.19959 64.8331L4.2479 64.0226ZM2 70.0701L0.75 70.0621V70.0701H2ZM2 74.34H0.75H2ZM74.34 75.78L74.3488 74.53H74.34V75.78ZM75.78 74.34L74.53 74.34L74.53 74.3488L75.78 74.34ZM75.78 70.0701L77.03 70.0701L77.03 70.0683L75.78 70.0701ZM67.91 60.8L68.1146 59.5669L68.013 59.55H67.91V60.8ZM38.8898 30.96H37.6398V32.2096L38.8894 32.21L38.8898 30.96ZM51.7952 9.90421L52.9088 9.33655L52.9088 9.33655L51.7952 9.90421ZM44.7798 3.25002L44.2352 4.37516L44.2533 4.38393L44.2717 4.39212L44.7798 3.25002ZM44.2244 3.10798L44.2869 1.85954L44.2244 3.10798ZM43.6577 3.19384L44.0871 4.36775L44.0871 4.36775L43.6577 3.19384ZM42.8367 3.96087L43.9788 4.46894L43.9788 4.46894L42.8367 3.96087ZM43.6098 5.88003L44.1211 4.73939L44.1011 4.73043L44.0808 4.72217L43.6098 5.88003ZM31.5704 25.4847L32.3564 24.5127L32.3564 24.5127L31.5704 25.4847ZM34.1198 5.88003L33.6844 4.70831L33.6459 4.7226L33.6085 4.73939L34.1198 5.88003ZM34.5871 3.46496L35.4282 2.54026L35.4282 2.54026L34.5871 3.46496ZM32.9398 3.26002L33.4536 4.39952L33.4918 4.38232L33.5287 4.36261L32.9398 3.26002ZM25.9673 9.93174L24.8515 9.36818L24.8515 9.36818L25.9673 9.93174ZM24.7355 19.5031L23.5134 19.7658L23.5134 19.7658L24.7355 19.5031ZM29.7916 27.7228L29.006 28.6951L29.006 28.6951L29.7916 27.7228ZM38.8898 30.94H40.1398V29.6902L38.89 29.69L38.8898 30.94ZM39.4413 2.10962L39.9196 0.95477L39.9196 0.95477L39.4413 2.10962ZM38.8902 2L38.8902 3.25L38.8902 3.25L38.8902 2ZM38.3391 2.10962L37.8608 0.95477L37.8608 0.95477L38.3391 2.10962ZM37.872 2.42177L38.7558 3.30565L38.7558 3.30565L37.872 2.42177ZM37.5598 2.88893L38.7147 3.36729L38.7147 3.36729L37.5598 2.88893ZM37.4502 3.44L36.2002 3.44L37.4502 3.44ZM37.5598 3.99106L38.7147 3.5127L38.7147 3.5127L37.5598 3.99106ZM37.872 4.45824L38.7558 3.57435L38.7558 3.57435L37.872 4.45824ZM38.8899 67.14L38.9041 65.8901L38.8899 65.8899L38.8757 65.8901L38.8899 67.14ZM37.5723 68.0376L36.4143 67.5669L36.4143 67.5669L37.5723 68.0376ZM37.4952 68.8668L38.7201 68.6178L38.7201 68.6178L37.4952 68.8668ZM37.8899 69.6L37.0077 70.4855L37.0177 70.4955L37.0279 70.5052L37.8899 69.6ZM39.8899 69.6L40.752 70.5052L40.7622 70.4955L40.7722 70.4855L39.8899 69.6ZM40.2847 68.8668L39.0598 68.6178L39.0598 68.6178L40.2847 68.8668ZM40.2076 68.0376L41.3655 67.5669L41.3655 67.5669L40.2076 68.0376ZM39.6843 67.3898L38.9805 68.4229L38.9805 68.4229L39.6843 67.3898ZM40.2202 11.0701C40.2202 10.3797 39.6606 9.82007 38.9702 9.82007C38.2799 9.82007 37.7202 10.3797 37.7202 11.0701H40.2202ZM37.7202 22.2901C37.7202 22.9804 38.2799 23.5401 38.9702 23.5401C39.6606 23.5401 40.2202 22.9804 40.2202 22.2901H37.7202ZM44.5799 17.9299C45.2702 17.9299 45.8299 17.3703 45.8299 16.6799C45.8299 15.9896 45.2702 15.4299 44.5799 15.4299V17.9299ZM33.3599 15.4299C32.6695 15.4299 32.1099 15.9896 32.1099 16.6799C32.1099 17.3703 32.6695 17.9299 33.3599 17.9299V15.4299ZM72.9 71.65H56.39V74.15H72.9V71.65ZM57.64 72.9V68.5H55.14V72.9H57.64ZM57.64 68.4993C57.6391 66.9073 57.3597 65.3277 56.8144 63.8319L54.4656 64.6882C54.911 65.91 55.1393 67.2003 55.14 68.5008L57.64 68.4993ZM56.2194 65.3676C56.7248 65.1032 57.2701 64.9233 57.8336 64.835L57.4464 62.3651C56.6135 62.4957 55.8076 62.7617 55.0606 63.1524L56.2194 65.3676ZM56.7572 64.4851L60.6672 68.3851L62.4327 66.615L58.5227 62.715L56.7572 64.4851ZM60.6635 68.3813C60.9107 68.63 61.2046 68.8273 61.5284 68.962L62.4886 66.6537C62.4691 66.6456 62.4514 66.6338 62.4365 66.6188L60.6635 68.3813ZM61.5284 68.962C61.8521 69.0967 62.1993 69.166 62.55 69.166V66.666C62.5289 66.666 62.508 66.6618 62.4886 66.6537L61.5284 68.962ZM62.55 69.166C62.9007 69.166 63.2479 69.0967 63.5716 68.962L62.6115 66.6537C62.592 66.6618 62.5711 66.666 62.55 66.666V69.166ZM63.5716 68.962C63.8954 68.8273 64.1893 68.63 64.4365 68.3813L62.6635 66.6188C62.6486 66.6338 62.6309 66.6456 62.6115 66.6537L63.5716 68.962ZM64.4339 68.3839L68.3339 64.4839L66.5661 62.7162L62.6661 66.6162L64.4339 68.3839ZM67.2452 64.8332C68.477 65.0378 69.5965 65.6723 70.4047 66.6242L72.3104 65.006C71.1194 63.6035 69.4699 62.6684 67.6548 62.3669L67.2452 64.8332ZM70.4047 66.6242C71.213 67.5761 71.6578 68.7836 71.66 70.0323L74.16 70.0278C74.1567 68.1878 73.5014 66.4086 72.3104 65.006L70.4047 66.6242ZM71.66 70.03V72.86H74.16V70.03H71.66ZM71.6974 72.5568L71.6874 72.5968L74.1127 73.2033L74.1227 73.1633L71.6974 72.5568ZM50.71 71.65H24.27V74.15H50.71V71.65ZM25.52 72.9V70.0201H23.02V72.9H25.52ZM24.27 71.2701H33.66V68.7701H24.27V71.2701ZM33.66 71.2701C34.0133 71.2701 34.3631 71.2005 34.6894 71.0653L33.7327 68.7556C33.7096 68.7651 33.6849 68.7701 33.66 68.7701V71.2701ZM34.6894 71.0653C35.0158 70.9301 35.3123 70.732 35.5621 70.4822L33.7944 68.7144C33.7767 68.732 33.7558 68.746 33.7327 68.7556L34.6894 71.0653ZM35.5621 70.4822C35.8119 70.2324 36.0101 69.9358 36.1452 69.6095L33.8355 68.6527C33.826 68.6758 33.812 68.6968 33.7944 68.7144L35.5621 70.4822ZM36.1452 69.6095C36.2804 69.2831 36.35 68.9333 36.35 68.58H33.85C33.85 68.605 33.8451 68.6297 33.8355 68.6527L36.1452 69.6095ZM36.35 68.58C36.35 68.2268 36.2804 67.877 36.1452 67.5506L33.8355 68.5073C33.8451 68.5304 33.85 68.5551 33.85 68.58H36.35ZM36.1452 67.5506C36.01 67.2242 35.8119 66.9277 35.5621 66.6779L33.7944 68.4457C33.812 68.4633 33.826 68.4843 33.8355 68.5073L36.1452 67.5506ZM35.5621 66.6779C35.3123 66.4281 35.0158 66.23 34.6894 66.0948L33.7327 68.4045C33.7558 68.4141 33.7767 68.4281 33.7944 68.4457L35.5621 66.6779ZM34.6894 66.0948C34.3631 65.9596 34.0133 65.89 33.66 65.89V68.39C33.6849 68.39 33.7096 68.395 33.7327 68.4045L34.6894 66.0948ZM33.66 65.89H24.38V68.39H33.66V65.89ZM25.6158 67.328C25.8797 65.5926 26.6976 63.989 27.9474 62.7564L26.1919 60.9764C24.5583 62.5876 23.4892 64.6837 23.1442 66.9521L25.6158 67.328ZM27.9474 62.7564C29.1972 61.5238 30.8119 60.7282 32.5508 60.4883L32.2092 58.0118C29.9362 58.3253 27.8255 59.3653 26.1919 60.9764L27.9474 62.7564ZM31.4953 60.1331L36.9753 65.6231L38.7447 63.857L33.2647 58.367L31.4953 60.1331ZM36.9979 65.6452C37.5 66.1234 38.1667 66.39 38.86 66.39V63.89C38.8086 63.89 38.7592 63.8703 38.7221 63.8349L36.9979 65.6452ZM38.86 66.39C39.5533 66.39 40.22 66.1234 40.7221 65.6452L38.9979 63.8349C38.9608 63.8703 38.9114 63.89 38.86 63.89V66.39ZM40.7447 65.6231L46.2247 60.1331L44.4553 58.367L38.9753 63.857L40.7447 65.6231ZM45.1776 60.4895C47.1276 60.7449 48.9192 61.6978 50.2212 63.1718L52.0949 61.5168C50.3931 59.5901 48.0513 58.3446 45.5024 58.0106L45.1776 60.4895ZM50.2212 63.1718C51.5231 64.6459 52.2474 66.5414 52.26 68.5081L54.76 68.492C54.7434 65.9213 53.7967 63.4436 52.0949 61.5168L50.2212 63.1718ZM52.26 68.5V72.86H54.76V68.5H52.26ZM53.4921 71.6102L50.6921 71.6502L50.7279 74.1499L53.5279 74.1099L53.4921 71.6102ZM6.13 70.0723C6.13224 68.8236 6.57699 67.6161 7.38525 66.6642L5.4796 65.046C4.28864 66.4486 3.63331 68.2278 3.63 70.0678L6.13 70.0723ZM7.38525 66.6642C8.19351 65.7123 9.31298 65.0778 10.5448 64.8732L10.1352 62.4069C8.32007 62.7084 6.67056 63.6435 5.4796 65.046L7.38525 66.6642ZM9.45612 64.5239L13.3561 68.4239L15.1239 66.6562L11.2239 62.7562L9.45612 64.5239ZM13.3597 68.4275C13.8598 68.9235 14.5356 69.2019 15.24 69.2019V66.7019C15.1952 66.7019 15.1521 66.6842 15.1203 66.6526L13.3597 68.4275ZM15.24 69.2019C15.9444 69.2019 16.6202 68.9235 17.1203 68.4275L15.3597 66.6526C15.3279 66.6842 15.2848 66.7019 15.24 66.7019V69.2019ZM17.1239 68.4239L21.0239 64.5239L19.2561 62.7562L15.3561 66.6562L17.1239 68.4239ZM19.936 64.8733C20.5052 64.9675 21.0564 65.1494 21.5699 65.4125L22.7101 63.1876C21.9665 62.8066 21.1683 62.5432 20.344 62.4068L19.936 64.8733ZM20.9681 63.8652C20.4129 65.3615 20.1291 66.9448 20.13 68.5407L22.63 68.5394C22.6293 67.2407 22.8602 65.9524 23.3119 64.7349L20.9681 63.8652ZM20.13 68.54V72.9H22.63V68.54H20.13ZM21.38 71.65H4.88V74.15H21.38V71.65ZM6.13 72.9V70.0701H3.63V72.9H6.13ZM12.75 52.22C12.75 51.8849 12.8824 51.5634 13.1184 51.3255L11.3436 49.5648C10.6431 50.271 10.25 51.2254 10.25 52.2201L12.75 52.22ZM13.1184 51.3255C13.3544 51.0876 13.6749 50.9527 14.0099 50.95L13.9901 48.4501C12.9954 48.458 12.0442 48.8587 11.3436 49.5648L13.1184 51.3255ZM14 50.95H19V48.45H14V50.95ZM17.75 49.7V51.5H20.25V49.7H17.75ZM17.75 51.5C17.75 51.5823 17.7173 51.6611 17.6592 51.7192L19.427 53.487C19.9539 52.96 20.25 52.2453 20.25 51.5H17.75ZM17.6592 51.7192C17.6011 51.7774 17.5222 51.81 17.44 51.81V54.31C18.1852 54.31 18.9 54.014 19.427 53.487L17.6592 51.7192ZM17.44 51.81H11.44V54.31H17.44V51.81ZM12.69 53.06V52.27H10.19V53.06H12.69ZM12.2403 53.2303L12.3003 53.1803L10.6997 51.2598L10.6397 51.3098L12.2403 53.2303ZM15.3061 62.6762L14.3761 63.6062L16.1439 65.3739L17.0739 64.4439L15.3061 62.6762ZM16.1439 63.6062L15.2139 62.6762L13.4461 64.4439L14.3761 65.3739L16.1439 63.6062ZM14.33 64.81H16.19V62.31H14.33V64.81ZM17.75 56.92C17.75 57.2497 17.6851 57.5761 17.5589 57.8806L19.8686 58.8373C20.1204 58.2294 20.25 57.578 20.25 56.92H17.75ZM17.5589 57.8806C17.4328 58.1851 17.2479 58.4618 17.0148 58.6949L18.7826 60.4626C19.2478 59.9974 19.6169 59.4451 19.8686 58.8373L17.5589 57.8806ZM17.0148 58.6949C16.7818 58.928 16.5051 59.1128 16.2005 59.239L17.1572 61.5487C17.7651 61.2969 18.3174 60.9279 18.7826 60.4626L17.0148 58.6949ZM16.2005 59.239C15.896 59.3651 15.5696 59.43 15.24 59.43V61.93C15.8979 61.93 16.5494 61.8005 17.1572 61.5487L16.2005 59.239ZM15.24 59.43C14.9104 59.43 14.584 59.3651 14.2795 59.239L13.3228 61.5487C13.9306 61.8005 14.5821 61.93 15.24 61.93V59.43ZM14.2795 59.239C13.9749 59.1128 13.6982 58.928 13.4652 58.6949L11.6974 60.4627C12.1626 60.9279 12.7149 61.2969 13.3228 61.5487L14.2795 59.239ZM13.4652 58.6949C13.2321 58.4618 13.0472 58.1851 12.9211 57.8806L10.6114 58.8373C10.8631 59.4451 11.2322 59.9974 11.6974 60.4627L13.4652 58.6949ZM12.9211 57.8806C12.7949 57.5761 12.73 57.2497 12.73 56.92H10.23C10.23 57.578 10.3596 58.2294 10.6114 58.8373L12.9211 57.8806ZM12.73 56.92V55.92H10.23V56.92H12.73ZM11.48 57.17H17.48V54.67H11.48V57.17ZM17.4789 57.17C18.1667 57.1707 18.8486 57.0439 19.4903 56.7961L18.5897 54.464C18.2361 54.6005 17.8602 54.6704 17.4811 54.67L17.4789 57.17ZM17.79 55.6301V56.94H20.29V55.6301H17.79ZM19.5991 55.8221L19.5591 55.8021L18.4409 58.038L18.4809 58.058L19.5991 55.8221ZM34.5 44.27C34.5 43.5578 34.7825 42.8746 35.2855 42.3703L33.5155 40.6048C32.545 41.5778 32 42.8959 32 44.2701L34.5 44.27ZM35.2855 42.3703C35.7885 41.8661 36.4709 41.5818 37.1832 41.58L37.1768 39.08C35.8026 39.0835 34.4859 39.6319 33.5155 40.6048L35.2855 42.3703ZM37.18 41.58H44.5V39.08H37.18V41.58ZM43.25 40.33V43.23H45.75V40.33H43.25ZM43.25 43.23C43.25 43.5987 43.1036 43.9522 42.8429 44.2129L44.6106 45.9807C45.3402 45.2512 45.75 44.2617 45.75 43.23H43.25ZM42.8429 44.2129C42.5822 44.4736 42.2287 44.62 41.86 44.62V47.12C42.8917 47.12 43.8811 46.7102 44.6106 45.9807L42.8429 44.2129ZM41.86 44.62H33.27V47.12H41.86V44.62ZM34.52 45.87V44.27H32.02V45.87H34.52ZM33.27 43.02H33.25V45.52H33.27V43.02ZM40.4961 58.2862L37.9861 60.7962L39.7539 62.5639L42.2639 60.0539L40.4961 58.2862ZM39.7539 60.7962L37.2439 58.2862L35.4761 60.0539L37.9861 62.5639L39.7539 60.7962ZM36.36 60.42H41.38V57.92H36.36V60.42ZM33.25 50.01H41.86V47.51H33.25V50.01ZM41.8626 50.01C42.9951 50.0076 44.1088 49.7208 45.1016 49.1758L43.8984 46.9843C43.2729 47.3278 42.571 47.5085 41.8574 47.51L41.8626 50.01ZM43.25 48.08V50.66H45.75V48.08H43.25ZM43.2511 50.7127C43.276 51.3029 43.1812 51.8921 42.9725 52.4447L45.3113 53.3279C45.6391 52.4599 45.788 51.5345 45.7489 50.6074L43.2511 50.7127ZM42.9725 52.4447C42.7638 52.9973 42.4455 53.502 42.0367 53.9284L43.8413 55.6586C44.4835 54.9888 44.9835 54.196 45.3113 53.3279L42.9725 52.4447ZM42.0367 53.9284C41.6279 54.3549 41.1371 54.6942 40.5937 54.926L41.5747 57.2255C42.4282 56.8614 43.1992 56.3284 43.8413 55.6586L42.0367 53.9284ZM40.5937 54.926C40.0503 55.1578 39.4657 55.2773 38.875 55.2773V57.7773C39.8029 57.7773 40.7212 57.5896 41.5747 57.2255L40.5937 54.926ZM38.875 55.2773C38.2843 55.2773 37.6997 55.1578 37.1563 54.926L36.1753 57.2255C37.0288 57.5896 37.9471 57.7773 38.875 57.7773V55.2773ZM37.1563 54.926C36.6129 54.6942 36.1221 54.3549 35.7133 53.9284L33.9087 55.6586C34.5508 56.3284 35.3218 56.8614 36.1753 57.2255L37.1563 54.926ZM35.7133 53.9284C35.3045 53.502 34.9862 52.9973 34.7775 52.4447L32.4387 53.3279C32.7665 54.196 33.2665 54.9888 33.9087 55.6586L35.7133 53.9284ZM34.7775 52.4447C34.5688 51.8921 34.474 51.3029 34.4989 50.7127L32.0011 50.6074C31.962 51.5345 32.1109 52.4599 32.4387 53.3279L34.7775 52.4447ZM34.5 50.66V48.76H32V50.66H34.5ZM60 52.22C60 51.8841 60.1331 51.5618 60.3702 51.3238L58.5989 49.5595C57.8951 50.2661 57.5 51.2228 57.5 52.2201L60 52.22ZM60.3702 51.3238C60.6073 51.0858 60.929 50.9514 61.265 50.95L61.255 48.45C60.2578 48.454 59.3027 48.853 58.5989 49.5595L60.3702 51.3238ZM61.26 50.95H66.26V48.45H61.26V50.95ZM65.01 49.7V51.5H67.51V49.7H65.01ZM65.01 51.5C65.01 51.5823 64.9773 51.6611 64.9192 51.7192L66.687 53.487C67.2139 52.96 67.51 52.2453 67.51 51.5H65.01ZM64.9192 51.7192C64.8611 51.7774 64.7822 51.81 64.7 51.81V54.31C65.4453 54.31 66.16 54.014 66.687 53.487L64.9192 51.7192ZM64.7 51.81H58.77V54.31H64.7V51.81ZM60.02 53.06V52.27H57.52V53.06H60.02ZM59.9306 51.8058L59.9106 51.7558L57.5894 52.6843L57.6094 52.7343L59.9306 51.8058ZM62.5461 62.6762L61.6161 63.6062L63.3839 65.3739L64.3139 64.4439L62.5461 62.6762ZM63.3887 63.611L62.4687 62.681L60.6913 64.4391L61.6113 65.3691L63.3887 63.611ZM61.58 64.81H63.43V62.31H61.58V64.81ZM65.0117 56.9845C65.0292 57.3246 64.9774 57.6646 64.8594 57.984L67.2043 58.8507C67.4399 58.2132 67.5434 57.5344 67.5083 56.8556L65.0117 56.9845ZM64.8594 57.984C64.7413 58.3034 64.5595 58.5955 64.325 58.8424L66.1378 60.564C66.6058 60.0711 66.9687 59.4882 67.2043 58.8507L64.8594 57.984ZM64.325 58.8424C64.0905 59.0893 63.8082 59.2859 63.4954 59.4202L64.4818 61.7174C65.1063 61.4492 65.6697 61.0568 66.1378 60.564L64.325 58.8424ZM63.4954 59.4202C63.1825 59.5546 62.8455 59.6239 62.505 59.6239V62.1239C63.1847 62.1239 63.8572 61.9856 64.4818 61.7174L63.4954 59.4202ZM62.505 59.6239C62.1645 59.6239 61.8275 59.5546 61.5146 59.4202L60.5282 61.7174C61.1528 61.9856 61.8253 62.1239 62.505 62.1239V59.6239ZM61.5146 59.4202C61.2018 59.2859 60.9195 59.0893 60.685 58.8424L58.8722 60.564C59.3403 61.0568 59.9037 61.4492 60.5282 61.7174L61.5146 59.4202ZM60.685 58.8424C60.4505 58.5955 60.2687 58.3034 60.1506 57.984L57.8057 58.8507C58.0413 59.4882 58.4042 60.0711 58.8722 60.564L60.685 58.8424ZM60.1506 57.984C60.0326 57.6646 59.9808 57.3246 59.9983 56.9845L57.5017 56.8556C57.4666 57.5344 57.5701 58.2132 57.8057 58.8507L60.1506 57.984ZM60 56.92V55.92H57.5V56.92H60ZM58.75 57.17H64.7V54.67H58.75V57.17ZM64.6945 57.17C65.3854 57.1731 66.0707 57.0457 66.7144 56.7945L65.8056 54.4656C65.4551 54.6023 65.0818 54.6717 64.7055 54.6701L64.6945 57.17ZM65.01 55.6301V56.94H67.51V55.6301H65.01ZM67.51 56.94V56.92H65.01V56.94H67.51ZM68.9025 61.533C69.8746 60.1903 70.3954 58.5736 70.39 56.916L67.89 56.9241C67.8937 58.0525 67.5392 59.153 66.8775 60.0671L68.9025 61.533ZM70.39 56.92V48.26H67.89V56.92H70.39ZM70.39 48.2688C70.3925 47.9137 70.3244 47.5617 70.1896 47.2331L67.8766 48.1817C67.8856 48.2038 67.8902 48.2274 67.89 48.2513L70.39 48.2688ZM70.1896 47.2331C70.0549 46.9046 69.8562 46.6061 69.6051 46.355L67.8373 48.1227C67.8542 48.1396 67.8675 48.1596 67.8766 48.1817L70.1896 47.2331ZM69.6051 46.355C69.354 46.1038 69.0554 45.9052 68.7269 45.7704L67.7783 48.0835C67.8004 48.0925 67.8205 48.1059 67.8373 48.1227L69.6051 46.355ZM68.7269 45.7704C68.3984 45.6357 68.0463 45.5676 67.6912 45.5701L67.7088 48.07C67.7326 48.0699 67.7563 48.0744 67.7783 48.0835L68.7269 45.7704ZM67.7 45.57H61.28V48.07H67.7V45.57ZM61.2777 45.5701C59.5156 45.5733 57.8266 46.2747 56.5807 47.5207L58.3484 49.2885C59.1267 48.5102 60.1817 48.0721 61.2823 48.07L61.2777 45.5701ZM56.5807 47.5207C55.3347 48.7667 54.6333 50.4557 54.63 52.2177L57.13 52.2224C57.132 51.1217 57.5702 50.0667 58.3484 49.2885L56.5807 47.5207ZM54.63 52.22V56.92H57.13V52.22H54.63ZM54.63 56.9192C54.6289 58.5777 55.1537 60.1938 56.129 61.5352L58.151 60.0649C57.4867 59.1513 57.1292 58.0505 57.13 56.9209L54.63 56.9192ZM56.9417 59.5659C55.823 59.7456 54.741 60.1063 53.7381 60.6337L54.9019 62.8464C55.6646 62.4452 56.4875 62.1709 57.3383 62.0342L56.9417 59.5659ZM55.36 61.0466C54.2505 59.3825 52.7853 57.9854 51.0702 56.9564L49.784 59.1001C51.1817 59.9387 52.3757 61.0773 53.28 62.4335L55.36 61.0466ZM51.0702 56.9564C49.3551 55.9273 47.4329 55.2919 45.4424 55.0961L45.1976 57.584C46.8198 57.7437 48.3862 58.2615 49.784 59.1001L51.0702 56.9564ZM46.2498 57.1755C47.8553 55.3888 48.7425 53.0709 48.74 50.6688L46.24 50.6713C46.2418 52.4556 45.5829 54.1774 44.3902 55.5045L46.2498 57.1755ZM48.74 50.67V38.89H46.24V50.67H48.74ZM48.7393 38.8474C48.7272 38.4941 48.6456 38.1466 48.4992 37.8248L46.2238 38.8605C46.2341 38.8832 46.2399 38.9077 46.2407 38.9327L48.7393 38.8474ZM48.4992 37.8248C48.3527 37.5031 48.1443 37.2133 47.8858 36.9722L46.1804 38.8002C46.1987 38.8173 46.2134 38.8377 46.2238 38.8605L48.4992 37.8248ZM47.8858 36.9722C47.6273 36.731 47.3238 36.5432 46.9926 36.4194L46.1174 38.7612C46.1407 38.7699 46.1622 38.7832 46.1804 38.8002L47.8858 36.9722ZM46.9926 36.4194C46.6615 36.2956 46.3092 36.2383 45.9559 36.2508L46.0441 38.7493C46.0691 38.7484 46.094 38.7524 46.1174 38.7612L46.9926 36.4194ZM46 36.25H37.2V38.75H46V36.25ZM37.1982 36.25C35.0593 36.2532 33.009 37.1042 31.4966 38.6166L33.2643 40.3844C34.3088 39.3399 35.7248 38.7522 37.2018 38.75L37.1982 36.25ZM31.4966 38.6166C29.9842 40.129 29.1331 42.1794 29.13 44.3182L31.63 44.3219C31.6322 42.8448 32.2199 41.4288 33.2643 40.3844L31.4966 38.6166ZM29.13 44.32V50.71H31.63V44.32H29.13ZM29.13 50.7116C29.133 53.1109 30.0187 55.4252 31.6184 57.2135L33.4816 55.5466C32.2913 54.216 31.6322 52.4939 31.63 50.7085L29.13 50.7116ZM32.4276 55.1361C30.4371 55.3319 28.5149 55.9673 26.7998 56.9964L28.086 59.1401C29.4838 58.3015 31.0502 57.7837 32.6724 57.624L32.4276 55.1361ZM26.7998 56.9964C25.0847 58.0254 23.6195 59.4225 22.51 61.0866L24.59 62.4735C25.4943 61.1173 26.6883 59.9787 28.086 59.1401L26.7998 56.9964ZM24.1337 60.6747C23.1304 60.1449 22.0468 59.7837 20.9263 59.6056L20.5337 62.0745C21.3835 62.2097 22.2054 62.4836 22.9663 62.8854L24.1337 60.6747ZM21.741 61.5751C22.7163 60.2338 23.2411 58.6177 23.24 56.9592L20.74 56.9609C20.7408 58.0905 20.3833 59.1913 19.719 60.1049L21.741 61.5751ZM23.24 56.9601V48.3H20.74V56.9601H23.24ZM23.24 48.3C23.24 47.5866 22.9566 46.9024 22.4521 46.3979L20.6844 48.1657C20.72 48.2013 20.74 48.2497 20.74 48.3H23.24ZM22.4521 46.3979C21.9476 45.8935 21.2634 45.61 20.55 45.61V48.11C20.6004 48.11 20.6487 48.1301 20.6844 48.1657L22.4521 46.3979ZM20.55 45.61H14V48.11H20.55V45.61ZM14 45.61C12.2363 45.61 10.5449 46.3107 9.29774 47.5578L11.0655 49.3255C11.8438 48.5473 12.8993 48.11 14 48.11V45.61ZM9.29774 47.5578C8.05062 48.8049 7.35 50.4963 7.35 52.26H9.85C9.85 51.1594 10.2872 50.1038 11.0655 49.3255L9.29774 47.5578ZM7.35 52.26V56.9601H9.85V52.26H7.35ZM7.35 56.9592C7.34886 58.6177 7.87368 60.2338 8.849 61.5751L10.871 60.1049C10.2067 59.1913 9.84922 58.0905 9.85 56.9609L7.35 56.9592ZM9.65302 59.6073C7.17581 60.0232 4.92477 61.2998 3.29622 63.2122L5.19959 64.8331C6.44657 63.3687 8.1702 62.3913 10.067 62.0728L9.65302 59.6073ZM3.29622 63.2122C1.66766 65.1246 0.766014 67.5503 0.750025 70.0621L3.24997 70.078C3.26222 68.1547 3.95261 66.2974 5.19959 64.8331L3.29622 63.2122ZM0.75 70.0701V74.34H3.25V70.0701H0.75ZM0.75 74.34C0.75 75.0535 1.03341 75.7377 1.53788 76.2422L3.30565 74.4744C3.27002 74.4388 3.25 74.3904 3.25 74.34H0.75ZM1.53788 76.2422C2.04235 76.7466 2.72657 77.03 3.44 77.03V74.53C3.38961 74.53 3.34128 74.51 3.30565 74.4744L1.53788 76.2422ZM3.44 77.03H74.34V74.53H3.44V77.03ZM74.3312 77.03C74.6863 77.0325 75.0384 76.9644 75.3669 76.8297L74.4183 74.5166C74.3963 74.5257 74.3726 74.5302 74.3488 74.5301L74.3312 77.03ZM75.3669 76.8297C75.6955 76.6949 75.994 76.4962 76.2451 76.2451L74.4773 74.4774C74.4604 74.4942 74.4404 74.5076 74.4183 74.5166L75.3669 76.8297ZM76.2451 76.2451C76.4962 75.994 76.6949 75.6956 76.8296 75.367L74.5166 74.4184C74.5075 74.4404 74.4942 74.4605 74.4773 74.4774L76.2451 76.2451ZM76.8296 75.367C76.9644 75.0384 77.0325 74.6863 77.03 74.3313L74.53 74.3488C74.5302 74.3727 74.5256 74.3964 74.5166 74.4184L76.8296 75.367ZM77.03 74.34V70.0701H74.53V74.34H77.03ZM77.03 70.0683C77.0265 67.5461 76.1288 65.1068 74.4964 63.1841L72.5906 64.8021C73.8401 66.2739 74.5273 68.1411 74.53 70.0718L77.03 70.0683ZM74.4964 63.1841C72.864 61.2613 70.6028 59.9797 68.1146 59.5669L67.7054 62.0332C69.6101 62.3492 71.341 63.3302 72.5906 64.8021L74.4964 63.1841ZM67.91 59.55H67.89V62.05H67.91V59.55ZM38.8894 32.21C42.4941 32.2112 45.9899 30.9742 48.7917 28.7061L47.2187 26.763C44.8622 28.6706 41.922 29.711 38.8902 29.71L38.8894 32.21ZM48.7917 28.7061C51.5934 26.438 53.5312 23.2765 54.2807 19.7505L51.8353 19.2307C51.2049 22.1963 49.5752 24.8554 47.2187 26.763L48.7917 28.7061ZM54.2807 19.7505C55.0301 16.2245 54.5459 12.5481 52.9088 9.33655L50.6815 10.4719C52.0583 13.173 52.4657 16.2651 51.8353 19.2307L54.2807 19.7505ZM52.9088 9.33655C51.2718 6.12496 48.5814 3.57307 45.2878 2.10793L44.2717 4.39212C47.0418 5.6244 49.3047 7.77071 50.6815 10.4719L52.9088 9.33655ZM45.3244 2.12489C44.9998 1.96781 44.647 1.87757 44.2869 1.85954L44.1619 4.35641C44.1874 4.35769 44.2123 4.36406 44.2352 4.37516L45.3244 2.12489ZM44.2869 1.85954C43.9268 1.84151 43.5668 1.89607 43.2282 2.01993L44.0871 4.36775C44.1111 4.35899 44.1365 4.35514 44.1619 4.35641L44.2869 1.85954ZM43.2282 2.01993C42.8897 2.14379 42.5794 2.33444 42.3159 2.58062L44.0227 4.40734C44.0413 4.38999 44.0632 4.37651 44.0871 4.36775L43.2282 2.01993ZM42.3159 2.58062C42.0525 2.82678 41.8412 3.12339 41.6947 3.45279L43.9788 4.46894C43.9892 4.44566 44.0041 4.42471 44.0227 4.40734L42.3159 2.58062ZM41.6947 3.45279C41.5481 3.7822 41.4693 4.13771 41.4628 4.49822L43.9624 4.54278C43.9629 4.51734 43.9685 4.49223 43.9788 4.46894L41.6947 3.45279ZM41.4628 4.49822C41.4564 4.85872 41.5225 5.21683 41.6572 5.55124L43.9762 4.61717C43.9667 4.59353 43.962 4.56823 43.9624 4.54278L41.4628 4.49822ZM41.6572 5.55124C41.7919 5.88565 41.9925 6.18961 42.247 6.44502L44.0178 4.6803C43.9999 4.66229 43.9857 4.64081 43.9762 4.61717L41.6572 5.55124ZM42.247 6.44502C42.5015 6.70042 42.8048 6.90202 43.1387 7.03788L44.0808 4.72217C44.0572 4.71257 44.0358 4.69833 44.0178 4.6803L42.247 6.44502ZM43.0985 7.02067C45.2602 7.98972 47.0241 9.67104 48.0956 11.7839L50.3253 10.6532C48.995 8.02995 46.805 5.94251 44.1211 4.73939L43.0985 7.02067ZM48.0956 11.7839C49.1671 13.8968 49.4814 16.3132 48.9859 18.6299L51.4306 19.1527C52.0458 16.2765 51.6556 13.2764 50.3253 10.6532L48.0956 11.7839ZM48.9859 18.6299C48.4904 20.9465 47.2152 23.023 45.3732 24.5127L46.9452 26.4566C49.2322 24.6071 50.8154 22.0289 51.4306 19.1527L48.9859 18.6299ZM45.3732 24.5127C43.5311 26.0024 41.2338 26.8151 38.8648 26.8151V29.3151C41.806 29.3151 44.6583 28.3061 46.9452 26.4566L45.3732 24.5127ZM38.8648 26.8151C36.4958 26.8151 34.1984 26.0024 32.3564 24.5127L30.7843 26.4566C33.0713 28.3061 35.9235 29.3151 38.8648 29.3151V26.8151ZM32.3564 24.5127C30.5144 23.023 29.2392 20.9465 28.7437 18.6299L26.299 19.1527C26.9142 22.0289 28.4974 24.6071 30.7843 26.4566L32.3564 24.5127ZM28.7437 18.6299C28.2482 16.3132 28.5624 13.8968 29.6339 11.7839L27.4043 10.6532C26.074 13.2764 25.6838 16.2765 26.299 19.1527L28.7437 18.6299ZM29.6339 11.7839C30.7054 9.67104 32.4693 7.98972 34.6311 7.02067L33.6085 4.73939C30.9245 5.94251 28.7346 8.02995 27.4043 10.6532L29.6339 11.7839ZM34.5552 7.05174C34.9007 6.92336 35.216 6.72536 35.4818 6.47009L33.7498 4.66722C33.731 4.68528 33.7087 4.69926 33.6844 4.70831L34.5552 7.05174ZM35.4818 6.47009C35.7475 6.2148 35.958 5.90762 36.1001 5.56762L33.7935 4.60348C33.7834 4.62749 33.7686 4.64919 33.7498 4.66722L35.4818 6.47009ZM36.1001 5.56762C36.2422 5.22762 36.313 4.86204 36.3079 4.49355L33.8082 4.52762C33.8085 4.55363 33.8035 4.57945 33.7935 4.60348L36.1001 5.56762ZM36.3079 4.49355C36.3029 4.12506 36.2222 3.76155 36.0709 3.42555L33.7914 4.45218C33.8021 4.47592 33.8078 4.5016 33.8082 4.52762L36.3079 4.49355ZM36.0709 3.42555C35.9196 3.08952 35.7008 2.7882 35.4282 2.54026L33.746 4.38966C33.7653 4.40719 33.7807 4.42847 33.7914 4.45218L36.0709 3.42555ZM35.4282 2.54026C35.1556 2.2923 34.835 2.10299 34.4861 1.98408L33.6795 4.35037C33.7041 4.35877 33.7268 4.37214 33.746 4.38966L35.4282 2.54026ZM34.4861 1.98408C34.1373 1.86518 33.7678 1.81921 33.4005 1.84903L33.6028 4.34083C33.6288 4.33873 33.6549 4.34197 33.6795 4.35037L34.4861 1.98408ZM33.4005 1.84903C33.0332 1.87885 32.676 1.9838 32.3509 2.15743L33.5287 4.36261C33.5516 4.35036 33.5768 4.34294 33.6028 4.34083L33.4005 1.84903ZM32.4259 2.12051C29.1467 3.59925 26.4733 6.15727 24.8515 9.36818L27.083 10.4953C28.4471 7.79471 30.6955 5.64323 33.4536 4.39952L32.4259 2.12051ZM24.8515 9.36818C23.2297 12.5791 22.7574 16.2489 23.5134 19.7658L25.9576 19.2404C25.3217 16.2824 25.719 13.1959 27.083 10.4953L24.8515 9.36818ZM23.5134 19.7658C24.2694 23.2827 26.208 26.4343 29.006 28.6951L30.5772 26.7505C28.2239 24.849 26.5934 22.1984 25.9576 19.2404L23.5134 19.7658ZM29.006 28.6951C31.804 30.9559 35.2923 32.1894 38.8896 32.19L38.89 29.69C35.8645 29.6895 32.9305 28.6521 30.5772 26.7505L29.006 28.6951ZM37.6398 30.94V30.96H40.1398V30.94H37.6398ZM38.8902 6.13C39.2435 6.13 39.5933 6.06041 39.9196 5.92524L38.9629 3.61554C38.9398 3.62509 38.9151 3.63 38.8902 3.63V6.13ZM39.9196 5.92524C40.246 5.79006 40.5425 5.59192 40.7923 5.34212L39.0245 3.57435C39.0069 3.59198 38.986 3.60598 38.9629 3.61554L39.9196 5.92524ZM40.7923 5.34212C41.0421 5.09232 41.2403 4.79576 41.3754 4.46941L39.0657 3.5127C39.0562 3.53578 39.0422 3.55673 39.0245 3.57435L40.7923 5.34212ZM41.3754 4.46941C41.5106 4.14306 41.5802 3.79327 41.5802 3.44H39.0802C39.0802 3.46494 39.0753 3.48964 39.0657 3.5127L41.3754 4.46941ZM41.5802 3.44C41.5802 3.08674 41.5106 2.73694 41.3754 2.41058L39.0657 3.36729C39.0753 3.39034 39.0802 3.41505 39.0802 3.44H41.5802ZM41.3754 2.41058C41.2402 2.0842 41.0421 1.78766 40.7923 1.53788L39.0245 3.30565C39.0422 3.32331 39.0562 3.34425 39.0657 3.36729L41.3754 2.41058ZM40.7923 1.53788C40.5425 1.28808 40.246 1.08995 39.9196 0.95477L38.9629 3.26447C38.986 3.27402 39.0069 3.28802 39.0245 3.30565L40.7923 1.53788ZM39.9196 0.95477C39.5933 0.819594 39.2435 0.75 38.8902 0.75L38.8902 3.25C38.9151 3.25 38.9398 3.25491 38.9629 3.26447L39.9196 0.95477ZM38.8902 0.75C38.5369 0.75 38.1871 0.819594 37.8608 0.95477L38.8175 3.26447C38.8406 3.25491 38.8653 3.25 38.8902 3.25L38.8902 0.75ZM37.8608 0.95477C37.5344 1.08995 37.2379 1.28808 36.9881 1.53788L38.7558 3.30565C38.7735 3.28802 38.7944 3.27402 38.8175 3.26447L37.8608 0.95477ZM36.9881 1.53788C36.7383 1.78766 36.5401 2.0842 36.405 2.41058L38.7147 3.36729C38.7242 3.34425 38.7382 3.32331 38.7558 3.30565L36.9881 1.53788ZM36.405 2.41058C36.2698 2.73696 36.2002 3.08676 36.2002 3.44L38.7002 3.44C38.7002 3.41504 38.7051 3.39032 38.7147 3.36729L36.405 2.41058ZM36.2002 3.44C36.2002 3.79326 36.2698 4.14305 36.405 4.46941L38.7147 3.5127C38.7051 3.48965 38.7002 3.46496 38.7002 3.44L36.2002 3.44ZM36.405 4.46941C36.5401 4.79576 36.7383 5.09232 36.9881 5.34212L38.7558 3.57435C38.7382 3.55673 38.7242 3.53578 38.7147 3.5127L36.405 4.46941ZM36.9881 5.34212C37.2379 5.59192 37.5344 5.79006 37.8608 5.92524L38.8175 3.61554C38.7944 3.60598 38.7735 3.59198 38.7558 3.57435L36.9881 5.34212ZM37.8608 5.92524C38.1871 6.06041 38.5369 6.13 38.8902 6.13V3.63C38.8653 3.63 38.8406 3.62509 38.8175 3.61554L37.8608 5.92524ZM38.8757 65.8901C38.3459 65.8961 37.8297 66.0585 37.3918 66.3568L38.7993 68.4229C38.8303 68.4018 38.8667 68.3904 38.9041 68.3899L38.8757 65.8901ZM37.3918 66.3568C36.9539 66.6551 36.6139 67.0761 36.4143 67.5669L38.7303 68.5084C38.7444 68.4737 38.7684 68.444 38.7993 68.4229L37.3918 66.3568ZM36.4143 67.5669C36.2148 68.0578 36.1647 68.5966 36.2702 69.1158L38.7201 68.6178C38.7127 68.5811 38.7162 68.543 38.7303 68.5084L36.4143 67.5669ZM36.2702 69.1158C36.3758 69.6351 36.6323 70.1115 37.0077 70.4855L38.7722 68.7145C38.7457 68.6881 38.7276 68.6545 38.7201 68.6178L36.2702 69.1158ZM37.0279 70.5052C37.5299 70.9833 38.1967 71.25 38.8899 71.25V68.75C38.8386 68.75 38.7892 68.7303 38.752 68.6948L37.0279 70.5052ZM38.8899 71.25C39.5832 71.25 40.25 70.9833 40.752 70.5052L39.0279 68.6948C38.9907 68.7303 38.9413 68.75 38.8899 68.75V71.25ZM40.7722 70.4855C41.1475 70.1115 41.4041 69.6351 41.5096 69.1158L39.0598 68.6178C39.0523 68.6545 39.0342 68.6881 39.0077 68.7145L40.7722 70.4855ZM41.5096 69.1158C41.6152 68.5966 41.5651 68.0578 41.3655 67.5669L39.0496 68.5084C39.0637 68.543 39.0672 68.5811 39.0598 68.6178L41.5096 69.1158ZM41.3655 67.5669C41.166 67.0761 40.826 66.6551 40.3881 66.3568L38.9805 68.4229C39.0115 68.444 39.0355 68.4737 39.0496 68.5084L41.3655 67.5669ZM40.3881 66.3568C39.9502 66.0585 39.434 65.8961 38.9041 65.8901L38.8757 68.3899C38.9131 68.3904 38.9496 68.4018 38.9805 68.4229L40.3881 66.3568ZM37.7202 11.0701V22.2901H40.2202V11.0701H37.7202ZM44.5799 15.4299H33.3599V17.9299H44.5799V15.4299Z" fill="white"/>
</svg>
