<svg width="49" height="78" viewBox="0 0 49 78" fill="none" xmlns="http://www.w3.org/2000/svg">
<path d="M28.7 40.6799L27.5342 39.736L25.5555 42.1799H28.7V40.6799ZM32.25 33.2799V31.7799H31.041L30.7842 32.9614L32.25 33.2799ZM38.73 33.2799L40.0059 34.0687L41.4209 31.7799H38.73V33.2799ZM28.73 40.6799V42.1799H28.9239L29.1114 42.1306L28.73 40.6799ZM16.82 33.2799L18.2863 32.9638L18.0311 31.7799H16.82V33.2799ZM20.37 40.6799L19.989 42.1307L24.4283 43.2967L21.5343 39.7341L20.37 40.6799ZM10.37 33.2799L11.6461 32.4914L11.2064 31.7799H10.37V33.2799ZM20.33 8.37994L21.4943 9.32573L24.3836 5.76893L19.9504 6.92879L20.33 8.37994ZM16.78 15.7799V17.2799H17.9911L18.2463 16.0961L16.78 15.7799ZM10.33 15.7799L9.05323 14.9927L7.64286 17.2799H10.33V15.7799ZM32.25 15.7799L30.7842 16.0985L31.041 17.2799H32.25V15.7799ZM28.7 8.37994L29.08 6.92888L24.6573 5.77066L27.5342 9.32384L28.7 8.37994ZM38.7 15.7799V17.2799H41.3879L39.9766 14.9923L38.7 15.7799ZM33.23 23.7799L31.7302 23.8017L31.7516 25.2799H33.23V23.7799ZM32.57 17.42V15.92H30.7497L31.0977 17.7067L32.57 17.42ZM39.57 17.42L40.9245 16.7755L40.5174 15.92H39.57V17.42ZM41.16 23.7799V25.2799H42.7304L42.6584 23.7112L41.16 23.7799ZM31 17.3699L32.4693 17.0681L32.2232 15.8699H31V17.3699ZM31.71 23.7299V25.2299H33.2399L33.2097 23.7003L31.71 23.7299ZM17.39 23.7299L15.8903 23.7003L15.8601 25.2299H17.39V23.7299ZM18.1 17.3699V15.8699H16.8768L16.6307 17.0681L18.1 17.3699ZM30.57 15.7799V17.2799H32.51L32.0217 15.4024L30.57 15.7799ZM18.48 15.7799L17.0321 15.3881L16.5201 17.2799H18.48V15.7799ZM16.51 17.3699L17.9825 17.6557L18.3291 15.8699H16.51V17.3699ZM15.84 23.7299V25.2299H17.3129L17.3398 23.7573L15.84 23.7299ZM7.87002 23.7299L6.3717 23.6589L6.29722 25.2299H7.87002V23.7299ZM9.47002 17.3699V15.8699H8.5241L8.11645 16.7235L9.47002 17.3699ZM15.83 25.3199L17.3298 25.2928L17.3031 23.8199H15.83V25.3199ZM16.5 31.6899V33.1899H18.3187L17.9726 31.4045L16.5 31.6899ZM9.50002 31.6899L8.14601 32.3354L8.55338 33.1899H9.50002V31.6899ZM7.90002 25.3199V23.8199H6.32732L6.4017 25.3909L7.90002 25.3199ZM18.1 31.6899L16.6307 31.9917L16.8767 33.1899H18.1V31.6899ZM17.39 25.3199V23.8199H15.8605L15.8903 25.3491L17.39 25.3199ZM31.67 25.3199L33.1699 25.3399L33.1901 23.8199H31.67V25.3199ZM31 31.6899V33.1899H32.2311L32.4712 31.9825L31 31.6899ZM18.48 33.1899V31.6899H16.5244L17.0313 33.5787L18.48 33.1899ZM30.58 33.1899L32.0277 33.5825L32.541 31.6899H30.58V33.1899ZM32.6 31.6899L31.1276 31.4036L30.7802 33.1899H32.6V31.6899ZM33.26 25.3199V23.8199H31.7815L31.7602 25.2983L33.26 25.3199ZM41.18 25.3199L42.6784 25.3886L42.7503 23.8199H41.18V25.3199ZM39.59 31.6899L38.2351 31.0464L37.2169 33.1899H39.59V31.6899ZM40.82 16.1899L42.3052 16.4L42.3716 15.9308L42.1563 15.5085L40.82 16.1899ZM24.535 6.21399L24.535 7.71399L24.535 6.21399ZM14.9862 8.90622L15.7697 10.1853L15.7697 10.1853L14.9862 8.90622ZM8.25002 16.1899L6.91372 15.5085L6.75002 15.8296V16.1899H8.25002ZM8.25002 16.2599L9.58785 16.9383L9.75002 16.6185V16.2599H8.25002ZM6.28027 24.4999L7.78027 24.4999L6.28027 24.4999ZM8.25002 32.7399H9.75002V32.3814L9.58785 32.0616L8.25002 32.7399ZM8.25002 32.8099H6.75002V33.1703L6.91372 33.4913L8.25002 32.8099ZM14.9862 40.0937L15.7697 38.8146L15.7697 38.8146L14.9862 40.0937ZM40.82 32.8099L42.1563 33.4913L42.2958 33.2178L42.3166 32.9115L40.82 32.8099ZM40.82 32.7299L39.4808 32.0542L39.2956 32.4213L39.3235 32.8315L40.82 32.7299ZM40.82 16.2599L39.3348 16.47L39.3694 16.7149L39.4808 16.9357L40.82 16.2599ZM47.06 24.53L48.56 24.53V24.53L47.06 24.53ZM2 24.53L0.5 24.53V24.53H2ZM28.0292 68.4602C27.2009 68.4442 26.5164 69.1026 26.5004 69.9309C26.4843 70.7592 27.1427 71.4436 27.971 71.4597L28.0292 68.4602ZM20.9246 71.4696C21.7528 71.4505 22.4088 70.7637 22.3897 69.9355C22.3706 69.1073 21.6838 68.4513 20.8556 68.4704L20.9246 71.4696ZM29.8658 41.6238C31.7585 39.2862 33.0771 36.5376 33.7158 33.5985L30.7842 32.9614C30.245 35.4425 29.1319 37.7627 27.5342 39.736L29.8658 41.6238ZM32.25 34.7799H38.73V31.7799H32.25V34.7799ZM37.4542 32.4911C35.3951 35.8215 32.1354 38.2337 28.3486 39.2292L29.1114 42.1306C33.6422 40.9395 37.5423 38.0534 40.0059 34.0687L37.4542 32.4911ZM28.73 39.1799H28.7V42.1799H28.73V39.1799ZM10.33 34.7799H16.82V31.7799H10.33V34.7799ZM15.3537 33.5961C15.9882 36.5384 17.3079 39.2895 19.2058 41.6257L21.5343 39.7341C19.9341 37.7643 18.8213 35.4447 18.2863 32.9638L15.3537 33.5961ZM20.7511 39.2291C16.9641 38.2345 13.7043 35.8223 11.6461 32.4914L9.09398 34.0684C11.5568 38.0541 15.4575 40.9405 19.989 42.1307L20.7511 39.2291ZM10.37 31.7799H10.33V34.7799H10.37V31.7799ZM19.1658 7.43416C17.2679 9.77038 15.9482 12.5215 15.3137 15.4638L18.2463 16.0961C18.7813 13.6152 19.8941 11.2956 21.4943 9.32573L19.1658 7.43416ZM16.78 14.2799H10.33V17.2799H16.78V14.2799ZM11.6068 16.5672C13.6617 13.2346 16.9219 10.8221 20.7097 9.8311L19.9504 6.92879C15.416 8.11508 11.5132 11.0031 9.05323 14.9927L11.6068 16.5672ZM33.7158 15.4614C33.0771 12.5222 31.7585 9.77365 29.8658 7.43605L27.5342 9.32384C29.1319 11.2971 30.245 13.6174 30.7842 16.0985L33.7158 15.4614ZM28.32 9.83101C32.1076 10.8229 35.3677 13.2354 37.4234 16.5675L39.9766 14.9923C37.5159 11.0038 33.6137 8.11615 29.08 6.92888L28.32 9.83101ZM34.7299 23.7582C34.6977 21.5339 34.4676 19.3168 34.0424 17.1332L31.0977 17.7067C31.4889 19.7156 31.7005 21.7553 31.7302 23.8017L34.7299 23.7582ZM32.57 18.92H39.57V15.92H32.57V18.92ZM38.2155 18.0644C39.078 19.877 39.5696 21.8435 39.6616 23.8487L42.6584 23.7112C42.5481 21.3069 41.9586 18.9488 40.9245 16.7755L38.2155 18.0644ZM41.16 22.2799H33.23V25.2799H41.16V22.2799ZM29.5307 17.6717C29.9424 19.6761 30.1699 21.7138 30.2103 23.7596L33.2097 23.7003C33.1657 21.4716 32.9179 19.2516 32.4693 17.0681L29.5307 17.6717ZM31.71 22.2299H17.39V25.2299H31.71V22.2299ZM18.8897 23.7596C18.9301 21.7138 19.1576 19.6761 19.5693 17.6717L16.6307 17.0681C16.1822 19.2516 15.9343 21.4716 15.8903 23.7003L18.8897 23.7596ZM18.1 18.8699H31V15.8699H18.1V18.8699ZM24.57 9.32996C25.1454 9.32996 25.9463 9.70259 26.8472 10.9224C27.7285 12.1156 28.5333 13.9078 29.1183 16.1574L32.0217 15.4024C31.3767 12.922 30.4416 10.7393 29.2603 9.14003C28.0988 7.56732 26.5147 6.32996 24.57 6.32996V9.32996ZM30.57 14.2799H18.48V17.2799H30.57V14.2799ZM19.9279 16.1718C20.5376 13.9189 21.3571 12.1231 22.2472 10.9265C23.1585 9.70172 23.9602 9.32996 24.53 9.32996V6.32996C22.5899 6.32996 21.0066 7.56818 19.8403 9.13586C18.653 10.7318 17.7024 12.911 17.0321 15.3881L19.9279 16.1718ZM24.53 9.32996H24.57V6.32996H24.53V9.32996ZM15.0375 17.0842C14.6141 19.266 14.3808 21.4804 14.3403 23.7026L17.3398 23.7573C17.3771 21.7087 17.5922 19.6671 17.9825 17.6557L15.0375 17.0842ZM15.84 22.2299H7.87002V25.2299H15.84V22.2299ZM9.36834 23.801C9.46343 21.7951 9.95819 19.8284 10.8236 18.0164L8.11645 16.7235C7.07889 18.8961 6.48571 21.254 6.3717 23.6589L9.36834 23.801ZM14.3303 25.3471C14.3706 27.5726 14.6039 29.7903 15.0274 31.9754L17.9726 31.4045C17.5821 29.3897 17.367 27.3448 17.3298 25.2928L14.3303 25.3471ZM16.5 30.1899H9.50002V33.1899H16.5V30.1899ZM10.854 31.0444C9.98835 29.2286 9.49347 27.2584 9.39834 25.249L6.4017 25.3909C6.51569 27.7987 7.10869 30.1596 8.14601 32.3354L10.854 31.0444ZM19.5694 31.3882C19.1571 29.3807 18.9296 27.3397 18.8897 25.2907L15.8903 25.3491C15.9338 27.5813 16.1816 29.8047 16.6307 31.9917L19.5694 31.3882ZM17.39 26.8199H31.67V23.8199H17.39V26.8199ZM30.1701 25.3C30.1429 27.3478 29.9282 29.3888 29.5288 31.3974L32.4712 31.9825C32.9063 29.7942 33.1402 27.5708 33.1699 25.3399L30.1701 25.3ZM31 30.1899H18.1V33.1899H31V30.1899ZM24.53 39.6899C23.9628 39.6899 23.1614 39.3187 22.2495 38.0864C21.3589 36.8828 20.5388 35.0746 19.9288 32.8012L17.0313 33.5787C17.7012 36.0753 18.6512 38.2671 19.838 39.8709C21.0036 41.4461 22.5872 42.6899 24.53 42.6899V39.6899ZM18.48 34.6899H30.58V31.6899H18.48V34.6899ZM29.1323 32.7973C28.5221 35.0476 27.7034 36.8605 26.8155 38.0744C25.9005 39.3256 25.1114 39.6899 24.58 39.6899V42.6899C26.5186 42.6899 28.0896 41.4143 29.237 39.8455C30.4116 38.2394 31.358 36.0523 32.0277 33.5825L29.1323 32.7973ZM24.58 39.6899H24.53V42.6899H24.58V39.6899ZM39.6 30.1899H32.6V33.1899H39.6V30.1899ZM34.0724 31.9763C34.4977 29.7894 34.7277 27.5691 34.7599 25.3416L31.7602 25.2983C31.7306 27.3481 31.5189 29.3913 31.1276 31.4036L34.0724 31.9763ZM33.26 26.8199H41.18V23.8199H33.26V26.8199ZM39.6816 25.2513C39.5896 27.26 39.0978 29.2301 38.2351 31.0464L40.9449 32.3335C41.9788 30.1568 42.5682 27.7958 42.6784 25.3886L39.6816 25.2513ZM39.59 33.1899H39.6V30.1899H39.59V33.1899ZM42.1563 15.5085C40.4997 12.2597 37.9771 9.53211 34.8674 7.62714L33.3003 10.1853C35.9384 11.8013 38.0783 14.1153 39.4837 16.8713L42.1563 15.5085ZM34.8674 7.62714C31.7577 5.72216 28.1818 4.71399 24.535 4.71399L24.535 7.71399C27.6287 7.71399 30.6622 8.56926 33.3003 10.1853L34.8674 7.62714ZM24.535 4.71399C20.8882 4.71399 17.3124 5.72216 14.2026 7.62714L15.7697 10.1853C18.4078 8.56926 21.4413 7.71399 24.535 7.71399L24.535 4.71399ZM14.2026 7.62714C11.0929 9.53211 8.57036 12.2597 6.91372 15.5085L9.58631 16.8713C10.9917 14.1153 13.1317 11.8013 15.7697 10.1853L14.2026 7.62714ZM6.75002 16.1899V16.2599H9.75002V16.1899H6.75002ZM6.91218 15.5816C5.51065 18.3456 4.78027 21.4009 4.78027 24.4999L7.78027 24.4999C7.78027 21.8724 8.39954 19.2818 9.58785 16.9383L6.91218 15.5816ZM4.78027 24.4999C4.78027 27.599 5.51065 30.6543 6.91218 33.4183L9.58785 32.0616C8.39954 29.7181 7.78027 27.1275 7.78027 24.4999L4.78027 24.4999ZM6.75002 32.7399V32.8099H9.75002V32.7399H6.75002ZM6.91372 33.4913C8.57036 36.7402 11.0929 39.4678 14.2026 41.3727L15.7697 38.8146C13.1317 37.1985 10.9917 34.8846 9.58631 32.1285L6.91372 33.4913ZM14.2026 41.3727C17.3124 43.2777 20.8882 44.2859 24.535 44.2859V41.2859C21.4413 41.2859 18.4078 40.4306 15.7697 38.8146L14.2026 41.3727ZM24.535 44.2859C28.1818 44.2859 31.7577 43.2777 34.8674 41.3727L33.3003 38.8146C30.6622 40.4306 27.6287 41.2859 24.535 41.2859V44.2859ZM34.8674 41.3727C37.9771 39.4678 40.4997 36.7402 42.1563 33.4913L39.4837 32.1285C38.0783 34.8846 35.9384 37.1985 33.3003 38.8146L34.8674 41.3727ZM42.3166 32.9115C42.323 32.8172 42.323 32.7226 42.3166 32.6284L39.3235 32.8315C39.3207 32.7905 39.3207 32.7494 39.3235 32.7083L42.3166 32.9115ZM42.1592 33.4057C43.5536 30.6423 44.28 27.5902 44.28 24.4949H41.28C41.28 27.1208 40.6638 29.7099 39.4808 32.0542L42.1592 33.4057ZM44.28 24.4949C44.28 21.3997 43.5536 18.3476 42.1592 15.5842L39.4808 16.9357C40.6638 19.28 41.28 21.8691 41.28 24.4949H44.28ZM42.3052 16.0498C42.3217 16.166 42.3217 16.2839 42.3052 16.4L39.3348 15.9798C39.3118 16.1424 39.3118 16.3075 39.3348 16.47L42.3052 16.0498ZM48.56 24.53C48.56 18.1568 46.0283 12.0447 41.5218 7.53822L39.4005 9.65954C43.3443 13.6034 45.56 18.9525 45.56 24.53L48.56 24.53ZM41.5218 7.53822C37.0153 3.03172 30.9031 0.5 24.53 0.5V3.5C30.1075 3.5 35.4566 5.71565 39.4005 9.65954L41.5218 7.53822ZM24.53 0.5C18.1568 0.5 12.0447 3.03172 7.53822 7.53822L9.65954 9.65954C13.6034 5.71565 18.9525 3.5 24.53 3.5V0.5ZM7.53822 7.53822C3.03173 12.0447 0.5 18.1568 0.5 24.53L3.5 24.53C3.5 18.9525 5.71566 13.6034 9.65954 9.65954L7.53822 7.53822ZM0.5 24.53C0.5 27.8855 1.5704 32.5672 3.19135 37.5918C4.82533 42.6568 7.06588 48.2111 9.50538 53.3666C11.9417 58.5152 14.5987 63.3134 17.0774 66.8476C18.3133 68.6098 19.5394 70.1076 20.7054 71.1815C21.803 72.1924 23.124 73.09 24.53 73.09V70.09C24.3335 70.09 23.7485 69.9057 22.7377 68.9748C21.7952 68.1067 20.7103 66.8027 19.5335 65.1249C17.1869 61.7791 14.6121 57.1448 12.2171 52.0834C9.82537 47.0289 7.63529 41.5957 6.04646 36.6707C4.4446 31.7053 3.5 27.3945 3.5 24.53H0.5ZM24.53 73.09C25.9523 73.09 27.2907 72.2089 28.415 71.1893C29.6008 70.1139 30.8392 68.614 32.082 66.8502C34.5741 63.3134 37.2247 58.5127 39.6462 53.3633C42.071 48.2067 44.289 42.6519 45.904 37.5869C47.5063 32.5614 48.56 27.8822 48.56 24.53H45.56C45.56 27.3978 44.6287 31.7111 43.0457 36.6756C41.4754 41.6006 39.3077 47.0333 36.9313 52.0867C34.5516 57.1473 31.9853 61.7791 29.6296 65.1223C28.4485 66.7985 27.3552 68.1005 26.3997 68.967C25.3827 69.8893 24.7702 70.09 24.53 70.09V73.09ZM27.971 71.4597C32.8343 71.554 37.086 71.8614 40.097 72.2935C41.6137 72.5111 42.7536 72.7519 43.4843 72.9904C43.86 73.1131 44.0394 73.2074 44.0951 73.2448C44.2195 73.3281 43.7701 73.0909 43.7701 72.46H46.7701C46.7701 71.514 46.0872 70.9684 45.7649 70.7524C45.3738 70.4904 44.893 70.2945 44.4153 70.1385C43.4391 69.8199 42.099 69.55 40.5232 69.3239C37.3492 68.8685 32.9659 68.556 28.0292 68.4602L27.971 71.4597ZM43.7701 72.46C43.7701 72.0658 43.9501 71.8208 44.0051 71.7539C44.0639 71.6826 44.0909 71.6767 44.021 71.7231C43.8838 71.814 43.5993 71.9592 43.1207 72.1376C42.1824 72.4875 40.7587 72.8706 38.9341 73.225C35.2992 73.931 30.2476 74.49 24.6801 74.49V77.49C30.4326 77.49 35.676 76.9139 39.5061 76.1699C41.414 75.7993 43.0153 75.3787 44.1688 74.9486C44.7362 74.737 45.2644 74.4981 45.6784 74.2237C45.884 74.0874 46.1213 73.9036 46.3213 73.6605C46.5177 73.422 46.7701 73.0116 46.7701 72.46H43.7701ZM24.6801 74.49C19.1059 74.49 14.0549 73.9648 10.4246 73.2762C8.60122 72.9304 7.18543 72.5524 6.25604 72.1997C5.78203 72.0199 5.50729 71.8734 5.37881 71.7837C5.31481 71.739 5.34314 71.7467 5.39934 71.8204C5.45747 71.8966 5.6001 72.1185 5.6001 72.46H2.6001C2.6001 72.9764 2.81507 73.3791 3.01437 73.6402C3.21174 73.8989 3.45007 74.0959 3.66138 74.2435C4.08353 74.5382 4.62067 74.7879 5.19165 75.0046C6.35226 75.445 7.95898 75.862 9.86556 76.2237C13.6953 76.9501 18.9343 77.49 24.6801 77.49V74.49ZM5.6001 72.46C5.6001 73.082 5.16212 73.3218 5.27343 73.246C5.32157 73.2132 5.48965 73.1224 5.8514 73.0024C6.55466 72.7692 7.65593 72.5323 9.12759 72.3166C12.0484 71.8886 16.1801 71.5788 20.9246 71.4696L20.8556 68.4704C16.0401 68.5812 11.7768 68.8963 8.6926 69.3483C7.16176 69.5727 5.85803 69.8395 4.90692 70.155C4.44148 70.3094 3.97003 70.5042 3.58544 70.7659C3.26401 70.9847 2.6001 71.5279 2.6001 72.46H5.6001ZM38.7 14.2799H32.25V17.2799H38.7V14.2799ZM9.47002 18.8699H16.51V15.8699H9.47002V18.8699ZM7.90002 26.8199H15.83V23.8199H7.90002V26.8199Z" fill="white"/>
</svg>
