<svg width="162" height="122" viewBox="0 0 162 122" fill="none" xmlns="http://www.w3.org/2000/svg">
<path d="M82.1664 27.2079H61.8807C61.2221 27.2079 60.5635 26.681 60.5635 25.8907V3.89251C60.5635 3.10216 61.0904 2.57526 61.8807 2.57526H67.1497" stroke="white" stroke-width="2" stroke-miterlimit="10" stroke-linecap="round" stroke-linejoin="round"/>
<path d="M96.6562 2.57526H99.8177C100.608 2.57526 101.135 3.10216 101.135 3.89251V25.8907C101.135 26.681 100.608 27.2079 99.8177 27.2079H98.8956" stroke="white" stroke-width="2" stroke-miterlimit="10" stroke-linecap="round" stroke-linejoin="round"/>
<path d="M85.4596 33.2673H76.2388V27.0762H84.1423C84.9326 27.0762 85.4596 27.6031 85.4596 28.3935V33.2673Z" stroke="white" stroke-width="2" stroke-miterlimit="10"/>
<path d="M92.441 33.2673H69.2573" stroke="white" stroke-width="2" stroke-miterlimit="10" stroke-linecap="round"/>
<path d="M67.4133 26.0224C67.4133 26.0224 63.8567 20.8851 64.2518 14.8257C64.647 8.76637 68.7305 2.97046 79.9272 1.38975C91.1238 -0.190955 96.5246 6.39532 97.4467 14.4306C98.3687 22.4658 95.6025 26.1541 92.1776 26.9445C88.7528 27.7348 85.7231 23.3879 88.6211 20.0948" stroke="white" stroke-width="2" stroke-miterlimit="10" stroke-linecap="round"/>
<path d="M73.604 26.1541C73.604 26.1541 74.6578 23.2562 77.5558 23.2562C80.4537 23.2562 81.1124 26.1541 81.1124 26.1541" stroke="white" stroke-width="2" stroke-miterlimit="10" stroke-linecap="round"/>
<path d="M85.196 6.13187C84.1422 5.47324 82.9566 5.07806 81.6394 5.07806C77.9511 5.07806 74.9214 8.10775 74.9214 11.7961C74.9214 13.7719 75.7117 15.6161 77.1607 16.8016" stroke="white" stroke-width="2" stroke-miterlimit="10" stroke-linecap="round"/>
<path d="M87.5669 13.3768C86.7765 14.1671 86.7765 15.4844 87.5669 16.2747" stroke="white" stroke-width="2" stroke-miterlimit="10" stroke-linecap="round"/>
<path d="M90.6426 9.12152L90.7643 9.22156" stroke="white" stroke-width="2" stroke-linecap="round" stroke-linejoin="round"/>
<path d="M92.5082 96.8472H69.1918C66.4161 96.8472 64.1955 94.6266 64.1955 91.8508V50.7696C64.1955 47.9938 66.4161 45.7732 69.1918 45.7732H92.5082C95.284 45.7732 97.5046 47.9938 97.5046 50.7696V91.8508C97.5046 94.6266 95.284 96.8472 92.5082 96.8472Z" stroke="white" stroke-width="3" stroke-miterlimit="10"/>
<path d="M85.2903 96.8471H76.4079V111.614H85.2903V96.8471Z" stroke="white" stroke-width="3" stroke-miterlimit="10"/>
<path d="M80.8499 70.2005C85.1423 70.2005 88.622 66.7208 88.622 62.4284C88.622 58.136 85.1423 54.6563 80.8499 54.6563C76.5574 54.6563 73.0777 58.136 73.0777 62.4284C73.0777 66.7208 76.5574 70.2005 80.8499 70.2005Z" stroke="white" stroke-width="3" stroke-miterlimit="10"/>
<path d="M80.8496 87.5213C83.4866 87.5213 85.6243 85.3836 85.6243 82.7466C85.6243 80.1097 83.4866 77.972 80.8496 77.972C78.2126 77.972 76.075 80.1097 76.075 82.7466C76.075 85.3836 78.2126 87.5213 80.8496 87.5213Z" stroke="white" stroke-width="3" stroke-miterlimit="10"/>
<path d="M64.0834 119.386V116.055C64.0834 113.613 66.0819 111.614 68.5246 111.614H93.1733C95.616 111.614 97.6145 113.613 97.6145 116.055V119.386C97.6145 120.052 97.1704 120.497 96.5042 120.497H65.1937C64.5275 120.497 64.0834 120.052 64.0834 119.386Z" stroke="white" stroke-width="3" stroke-miterlimit="10"/>
<path d="M159.661 93.5488H118.754C117.987 93.5488 117.476 93.0375 117.476 92.2704V86.1344C117.476 83.9612 119.137 82.2994 121.311 82.2994H157.104C159.277 82.2994 160.939 83.9612 160.939 86.1344V92.2704C160.939 93.0375 160.428 93.5488 159.661 93.5488Z" stroke="white" stroke-width="2" stroke-miterlimit="10"/>
<path d="M124.251 82.0437L120.032 64.6582" stroke="white" stroke-width="2" stroke-miterlimit="10" stroke-linecap="round"/>
<path d="M153.908 82.0437L158.255 64.6582" stroke="white" stroke-width="2" stroke-miterlimit="10" stroke-linecap="round"/>
<path d="M139.208 77.3138C140.549 77.3138 141.636 76.2264 141.636 74.885C141.636 73.5436 140.549 72.4561 139.208 72.4561C137.866 72.4561 136.779 73.5436 136.779 74.885C136.779 76.2264 137.866 77.3138 139.208 77.3138Z" stroke="white" stroke-width="2" stroke-miterlimit="10"/>
<path d="M145.855 70.7942C144.193 69.1324 141.764 68.1097 139.207 68.1097C136.651 68.1097 134.222 69.1324 132.56 70.7942" stroke="white" stroke-width="2" stroke-miterlimit="10" stroke-linecap="round"/>
<path d="M148.539 68.1097C146.11 65.6809 142.787 64.2747 139.207 64.2747C135.5 64.2747 132.176 65.6809 129.875 68.1097" stroke="white" stroke-width="2" stroke-miterlimit="10" stroke-linecap="round"/>
<path d="M151.352 65.4252C148.156 62.3572 143.937 60.4397 139.207 60.4397C134.478 60.4397 130.259 62.3572 127.063 65.4252" stroke="white" stroke-width="2" stroke-miterlimit="10" stroke-linecap="round"/>
<path d="M153.781 88.1798H149.179" stroke="white" stroke-width="2" stroke-miterlimit="10" stroke-linecap="round"/>
<path d="M125.529 88.1798H123.995" stroke="white" stroke-width="2" stroke-miterlimit="10" stroke-linecap="round"/>
<path d="M131.921 88.1798H130.387" stroke="white" stroke-width="2" stroke-miterlimit="10" stroke-linecap="round"/>
<path d="M0.758545 58.1249C4.47526 58.1249 5.33296 56.4094 6.04771 54.2652H9.33557V84.7136H4.47526V61.5557H0.758545V58.1249Z" fill="white"/>
<path d="M14.6247 61.6986C14.6247 56.8383 17.1978 53.9793 21.9151 53.9793C26.6325 53.9793 29.2056 56.6953 29.2056 61.6986V77.5661C29.2056 82.4264 26.6325 85.2854 21.9151 85.2854C17.1978 85.2854 14.6247 82.5694 14.6247 77.5661V61.6986ZM19.485 77.852C19.485 79.9962 20.4856 80.8539 21.9151 80.8539C23.4876 80.8539 24.3453 79.9962 24.3453 77.852V61.2697C24.3453 59.1255 23.3446 58.2678 21.9151 58.2678C20.3427 58.2678 19.485 59.1255 19.485 61.2697V77.852Z" fill="white"/>
<path d="M31.9218 61.6986C31.9218 56.8383 34.4949 53.9793 39.2123 53.9793C43.9296 53.9793 46.5028 56.6953 46.5028 61.6986V77.5661C46.5028 82.4264 43.9296 85.2854 39.2123 85.2854C34.4949 85.2854 31.9218 82.5694 31.9218 77.5661V61.6986ZM36.6392 77.852C36.6392 79.9962 37.6398 80.8539 39.0693 80.8539C40.6418 80.8539 41.4995 79.9962 41.4995 77.852V61.2697C41.4995 59.1255 40.4988 58.2678 39.0693 58.2678C37.4969 58.2678 36.6392 59.1255 36.6392 61.2697V77.852Z" fill="white"/>
<path d="M8.04916 96.7214L9.19277 89.1451H11.48V99.7234H9.90752V92.0041L8.76392 99.7234H7.19146L5.90491 92.147V99.7234H4.4754V89.0021H6.76261L8.04916 96.7214Z" fill="white"/>
<path d="M13.6241 99.7234V89.0021H18.3415V90.5746H15.3396V93.2906H16.3402C18.0556 93.2906 18.9133 94.2913 18.9133 96.0067V97.1503C18.9133 98.8657 18.0556 99.8663 16.3402 99.8663H13.6241V99.7234ZM16.3402 98.2939C16.912 98.2939 17.1979 98.008 17.1979 97.2932V95.8637C17.1979 95.149 16.912 94.8631 16.3402 94.8631H15.3396V98.2939H16.3402Z" fill="white"/>
<path d="M24.4885 89.145H25.918L21.6295 99.8663H20.2L24.4885 89.145Z" fill="white"/>
<path d="M32.3507 95.8637V97.2932C32.3507 99.0086 31.4929 100.009 29.7775 100.009C28.0621 100.009 27.2044 99.0086 27.2044 97.2932V91.7182C27.2044 90.0028 28.0621 89.0021 29.7775 89.0021C31.4929 89.0021 32.3507 90.0028 32.3507 91.7182V92.7188H30.7782V91.5752C30.7782 90.8605 30.4923 90.5746 29.9205 90.5746C29.3487 90.5746 29.0628 90.8605 29.0628 91.5752V97.2932C29.0628 98.008 29.3487 98.2939 29.9205 98.2939C30.4923 98.2939 30.7782 98.008 30.7782 97.2932V95.7208H32.3507V95.8637Z" fill="white"/>
<path d="M35.9246 93.5765H38.2118V95.149H35.9246V98.2939H38.7836V99.7234H34.2092V89.0021H38.7836V90.5746H35.9246V93.5765Z" fill="white"/>
<path d="M42.929 95.5778L42.3572 96.5785V99.7234H40.7847V89.0021H42.5001V93.7195L44.6444 89.0021H46.3598L44.0726 93.7195L46.3598 99.7234H44.6444L42.929 95.5778Z" fill="white"/>
</svg>
