<svg width="163" height="91" viewBox="0 0 163 91" fill="none" xmlns="http://www.w3.org/2000/svg">
<path d="M159.855 62.5488H118.948C118.181 62.5488 117.669 62.0375 117.669 61.2704V55.1344C117.669 52.9612 119.331 51.2994 121.504 51.2994H157.298C159.471 51.2994 161.133 52.9612 161.133 55.1344V61.2704C161.133 62.0375 160.622 62.5488 159.855 62.5488Z" stroke="white" stroke-width="2" stroke-miterlimit="10"/>
<path d="M124.444 51.0437L120.226 33.6582" stroke="white" stroke-width="2" stroke-miterlimit="10" stroke-linecap="round"/>
<path d="M154.102 51.0437L158.448 33.6582" stroke="white" stroke-width="2" stroke-miterlimit="10" stroke-linecap="round"/>
<path d="M139.401 46.3138C140.743 46.3138 141.83 45.2264 141.83 43.885C141.83 42.5436 140.743 41.4561 139.401 41.4561C138.06 41.4561 136.972 42.5436 136.972 43.885C136.972 45.2264 138.06 46.3138 139.401 46.3138Z" stroke="white" stroke-width="2" stroke-miterlimit="10"/>
<path d="M146.048 39.7942C144.386 38.1324 141.958 37.1097 139.401 37.1097C136.844 37.1097 134.415 38.1324 132.754 39.7942" stroke="white" stroke-width="2" stroke-miterlimit="10" stroke-linecap="round"/>
<path d="M148.733 37.1097C146.304 34.6809 142.98 33.2747 139.401 33.2747C135.694 33.2747 132.37 34.6809 130.069 37.1097" stroke="white" stroke-width="2" stroke-miterlimit="10" stroke-linecap="round"/>
<path d="M151.545 34.4252C148.349 31.3572 144.131 29.4397 139.401 29.4397C134.671 29.4397 130.453 31.3572 127.257 34.4252" stroke="white" stroke-width="2" stroke-miterlimit="10" stroke-linecap="round"/>
<path d="M153.974 57.1798H149.372" stroke="white" stroke-width="2" stroke-miterlimit="10" stroke-linecap="round"/>
<path d="M125.723 57.1798H124.189" stroke="white" stroke-width="2" stroke-miterlimit="10" stroke-linecap="round"/>
<path d="M132.114 57.1798H130.58" stroke="white" stroke-width="2" stroke-miterlimit="10" stroke-linecap="round"/>
<path d="M95.7567 61.9597H68.6086C65.3767 61.9597 62.7912 59.3742 62.7912 56.1423V8.31002C62.7912 5.07811 65.3767 2.49258 68.6086 2.49258H95.7567C98.9886 2.49258 101.574 5.07811 101.574 8.31002V56.1423C101.574 59.3742 98.9886 61.9597 95.7567 61.9597Z" stroke="white" stroke-width="3" stroke-miterlimit="10"/>
<path d="M87.3534 61.9598H77.0113V79.1536H87.3534V61.9598Z" stroke="white" stroke-width="3" stroke-miterlimit="10"/>
<path d="M82.1833 30.9344C87.1811 30.9344 91.2327 26.8828 91.2327 21.885C91.2327 16.8872 87.1811 12.8357 82.1833 12.8357C77.1855 12.8357 73.134 16.8872 73.134 21.885C73.134 26.8828 77.1855 30.9344 82.1833 30.9344Z" stroke="white" stroke-width="3" stroke-miterlimit="10"/>
<path d="M82.183 51.1015C85.2533 51.1015 87.7423 48.6125 87.7423 45.5422C87.7423 42.4719 85.2533 39.9829 82.183 39.9829C79.1126 39.9829 76.6237 42.4719 76.6237 45.5422C76.6237 48.6125 79.1126 51.1015 82.183 51.1015Z" stroke="white" stroke-width="3" stroke-miterlimit="10"/>
<path d="M62.6615 88.2029V84.3246C62.6615 81.4806 64.9885 79.1536 67.8326 79.1536H96.5319C99.376 79.1536 101.703 81.4806 101.703 84.3246V88.2029C101.703 88.9786 101.186 89.4957 100.41 89.4957H63.9543C63.1786 89.4957 62.6615 88.9786 62.6615 88.2029Z" stroke="white" stroke-width="3" stroke-miterlimit="10"/>
<path d="M0.951908 27.1249C4.66862 27.1249 5.52632 25.4094 6.24107 23.2652H9.52893V53.7136H4.66862V30.5557H0.951908V27.1249Z" fill="white"/>
<path d="M14.818 30.6986C14.818 25.8383 17.3911 22.9793 22.1085 22.9793C26.8259 22.9793 29.399 25.6953 29.399 30.6986V46.5661C29.399 51.4264 26.8259 54.2854 22.1085 54.2854C17.3911 54.2854 14.818 51.5694 14.818 46.5661V30.6986ZM19.6783 46.852C19.6783 48.9962 20.679 49.8539 22.1085 49.8539C23.681 49.8539 24.5387 48.9962 24.5387 46.852V30.2697C24.5387 28.1255 23.538 27.2678 22.1085 27.2678C20.536 27.2678 19.6783 28.1255 19.6783 30.2697V46.852Z" fill="white"/>
<path d="M32.1152 30.6986C32.1152 25.8383 34.6883 22.9793 39.4056 22.9793C44.123 22.9793 46.6961 25.6953 46.6961 30.6986V46.5661C46.6961 51.4264 44.123 54.2854 39.4056 54.2854C34.6883 54.2854 32.1152 51.5694 32.1152 46.5661V30.6986ZM36.8325 46.852C36.8325 48.9962 37.8332 49.8539 39.2627 49.8539C40.8351 49.8539 41.6928 48.9962 41.6928 46.852V30.2697C41.6928 28.1255 40.6922 27.2678 39.2627 27.2678C37.6902 27.2678 36.8325 28.1255 36.8325 30.2697V46.852Z" fill="white"/>
<path d="M8.24252 65.7214L9.38612 58.1451H11.6733V68.7234H10.1009V61.0041L8.95727 68.7234H7.38482L6.09826 61.147V68.7234H4.66876V58.0021H6.95596L8.24252 65.7214Z" fill="white"/>
<path d="M13.8175 68.7234V58.0021H18.5349V59.5746H15.5329V62.2906H16.5336C18.249 62.2906 19.1067 63.2913 19.1067 65.0067V66.1503C19.1067 67.8657 18.249 68.8663 16.5336 68.8663H13.8175V68.7234ZM16.5336 67.2939C17.1054 67.2939 17.3913 67.008 17.3913 66.2932V64.8637C17.3913 64.149 17.1054 63.8631 16.5336 63.8631H15.5329V67.2939H16.5336Z" fill="white"/>
<path d="M24.6819 58.145H26.1114L21.8229 68.8663H20.3934L24.6819 58.145Z" fill="white"/>
<path d="M32.544 64.8637V66.2932C32.544 68.0086 31.6863 69.0093 29.9709 69.0093C28.2555 69.0093 27.3978 68.0086 27.3978 66.2932V60.7182C27.3978 59.0028 28.2555 58.0021 29.9709 58.0021C31.6863 58.0021 32.544 59.0028 32.544 60.7182V61.7188H30.9716V60.5752C30.9716 59.8605 30.6857 59.5746 30.1139 59.5746C29.5421 59.5746 29.2562 59.8605 29.2562 60.5752V66.2932C29.2562 67.008 29.5421 67.2939 30.1139 67.2939C30.6857 67.2939 30.9716 67.008 30.9716 66.2932V64.7208H32.544V64.8637Z" fill="white"/>
<path d="M36.118 62.5765H38.4052V64.149H36.118V67.2939H38.977V68.7234H34.4026V58.0021H38.977V59.5746H36.118V62.5765Z" fill="white"/>
<path d="M43.1223 64.5778L42.5505 65.5785V68.7234H40.9781V58.0021H42.6935V62.7195L44.8377 58.0021H46.5531L44.2659 62.7195L46.5531 68.7234H44.8377L43.1223 64.5778Z" fill="white"/>
</svg>
