<svg width="73" height="65" viewBox="0 0 73 65" fill="none" xmlns="http://www.w3.org/2000/svg">
<path d="M54.8221 10.4224L53.7615 9.36172L53.7615 9.36172L54.8221 10.4224ZM54.8221 12.3174L53.7615 13.3781L53.7615 13.3781L54.8221 12.3174ZM59.3972 10.4224L60.4578 9.36172L60.4578 9.36172L59.3972 10.4224ZM46.7724 10.4224L45.7117 9.36172L45.7117 9.36172L46.7724 10.4224ZM46.7724 12.3174L45.7117 13.3781L45.7117 13.3781L46.7724 12.3174ZM51.3474 10.4224L52.4081 9.36172L52.4081 9.36172L51.3474 10.4224ZM14.1899 7.34998V5.84998V7.34998ZM11.9677 8.0241L12.801 9.2713L12.801 9.2713L11.9677 8.0241ZM10.4944 9.81924L9.10861 9.24522L9.10861 9.24522L10.4944 9.81924ZM10.2668 12.1303L8.79562 12.423L8.79562 12.423L10.2668 12.1303ZM11.3615 14.1784L10.3008 15.2391L10.3008 15.2391L11.3615 14.1784ZM17.0184 8.52155L15.9577 9.58221L15.9577 9.58221L17.0184 8.52155ZM11.9677 24.1141L12.801 25.3613L12.801 25.3613L11.9677 24.1141ZM10.4944 25.9092L9.10861 25.3352L9.10861 25.3352L10.4944 25.9092ZM10.2668 28.2203L8.79562 28.5129L8.79562 28.5129L10.2668 28.2203ZM11.3615 30.2684L10.3008 31.329L10.3008 31.329L11.3615 30.2684ZM17.0184 24.6115L15.9577 25.6722L15.9577 25.6722L17.0184 24.6115ZM11.9677 40.204L12.801 41.4512L12.801 41.4512L11.9677 40.204ZM10.4944 41.9992L9.10861 41.4251L9.10861 41.4251L10.4944 41.9992ZM10.2668 44.3103L8.79562 44.6029L8.79562 44.6029L10.2668 44.3103ZM11.3615 46.3583L10.3008 47.419L10.3008 47.419L11.3615 46.3583ZM17.0184 40.7015L15.9577 41.7621L15.9577 41.7621L17.0184 40.7015ZM66.5 8.71L68 8.71L68 8.70777L66.5 8.71ZM66.5 14.05L67.9997 14.0767C67.9999 14.0678 68 14.0589 68 14.05L66.5 14.05ZM65.7181 17.0763L67.043 17.7795L67.043 17.7795L65.7181 17.0763ZM63.65 19.42L62.7874 18.1929C62.392 18.4708 62.1547 18.9223 62.1501 19.4056C62.1454 19.8889 62.374 20.3448 62.764 20.6303L63.65 19.42ZM65.6535 21.7748L66.9901 21.094L66.9901 21.094L65.6535 21.7748ZM66.38 24.78L67.88 24.78L67.88 24.7751L66.38 24.78ZM66.38 29.7611L65.342 30.844C65.7758 31.2598 66.4159 31.3766 66.9686 31.1408C67.5214 30.905 67.88 30.362 67.88 29.7611H66.38ZM63.81 27.6715H62.31C62.31 28.1661 62.5539 28.6289 62.9618 28.9086L63.81 27.6715ZM63.81 24.78L62.31 24.7799V24.78H63.81ZM59.77 20.78V22.28C59.775 22.28 59.78 22.28 59.785 22.2799L59.77 20.78ZM4.77 30.16H3.27C3.27 30.1674 3.27006 30.1748 3.27017 30.1822L4.77 30.16ZM4.84 30.86L3.36546 31.1352L3.36599 31.138L4.84 30.86ZM4.99001 31.4L6.46567 31.1309C6.44996 31.0447 6.42672 30.9601 6.39624 30.878L4.99001 31.4ZM5.03999 31.57L6.44133 31.035C6.43651 31.0223 6.43152 31.0098 6.42637 30.9973L5.03999 31.57ZM5.24001 32L6.60855 31.3859C6.59131 31.3475 6.57246 31.3098 6.55205 31.273L5.24001 32ZM5.37 32.24L6.66971 31.4912C6.65764 31.4702 6.64506 31.4496 6.63198 31.4292L5.37 32.24ZM5.61 32.59L6.83403 31.723C6.81578 31.6972 6.79672 31.672 6.77688 31.6475L5.61 32.59ZM5.81999 32.85L4.71484 33.8642C4.72297 33.8731 4.7312 33.8818 4.73953 33.8905L5.81999 32.85ZM6.08 33.12L4.99954 34.1605C5.03049 34.1926 5.06286 34.2234 5.09655 34.2526L6.08 33.12ZM6.39999 33.37L7.36178 32.2189C7.32929 32.1918 7.29567 32.166 7.261 32.1417L6.39999 33.37ZM6.66 33.56L5.85547 34.826C5.86338 34.831 5.87133 34.836 5.87933 34.8408L6.66 33.56ZM7.09 33.79L6.45793 35.1504L6.4693 35.1556L7.09 33.79ZM7.31 33.89L6.6893 35.2556C6.7032 35.2619 6.71719 35.268 6.73127 35.2739L7.31 33.89ZM7.89999 34.07L7.60766 35.5412C7.70393 35.5604 7.80184 35.57 7.89999 35.57V34.07ZM8.02 34.07L8.30173 32.5967C8.20888 32.5789 8.11455 32.57 8.02 32.57V34.07ZM8.78999 34.14L8.78999 32.64L8.77856 32.64L8.78999 34.14ZM34.9391 34.14L36.2328 34.8993C36.505 34.4354 36.5081 33.8614 36.2408 33.3946C35.9736 32.9279 35.4769 32.64 34.9391 32.64V34.14ZM33.5986 36.88V38.38C34.2127 38.38 34.7647 38.0057 34.992 37.4352L33.5986 36.88ZM4.78999 46.23H3.28999C3.28999 46.2408 3.29011 46.2517 3.29035 46.2625L4.78999 46.23ZM4.84999 46.87L3.37043 47.1168C3.37126 47.1217 3.3721 47.1267 3.37298 47.1316L4.84999 46.87ZM4.97 47.36L6.41109 46.9438C6.40778 46.9323 6.40433 46.9209 6.40074 46.9095L4.97 47.36ZM8.81 50.25L8.80891 51.75H8.81V50.25ZM33.0412 50.25L34.4763 49.8137C34.2843 49.1819 33.7016 48.75 33.0412 48.75V50.25ZM34.0659 52.92V54.42C34.5788 54.42 35.0562 54.1579 35.3315 53.7251C35.6068 53.2923 35.6419 52.7488 35.4245 52.2842L34.0659 52.92ZM8.7 52.92L8.69784 54.42H8.7V52.92ZM2 46.28H0.5C0.5 46.2852 0.500027 46.2904 0.500082 46.2956L2 46.28ZM2 40.86L0.5 40.859V40.86H2ZM2.71976 37.8507L1.38162 37.1729L1.38162 37.1729L2.71976 37.8507ZM4.72 35.49L5.60831 36.6987C5.99455 36.4148 6.22187 35.9634 6.21999 35.4841C6.21811 35.0048 5.98725 34.5552 5.59878 34.2744L4.72 35.49ZM4.12 34.99L5.15726 33.9064L5.14804 33.8977L4.12 34.99ZM3.64999 34.5L2.44998 35.4C2.47383 35.4318 2.49894 35.4626 2.52524 35.4924L3.64999 34.5ZM3.53 34.34L4.73002 33.44C4.71062 33.4142 4.6904 33.3889 4.66938 33.3644L3.53 34.34ZM3.20999 33.92L1.95356 34.7394C1.95797 34.7461 1.96243 34.7529 1.96695 34.7595L3.20999 33.92ZM3.06 33.69L1.76186 34.4416C1.77516 34.4645 1.78907 34.4871 1.80357 34.5094L3.06 33.69ZM2.84 33.31L1.50766 33.9991C1.51856 34.0202 1.52997 34.041 1.54186 34.0616L2.84 33.31ZM2.69 33.02L1.3113 33.6109C1.32556 33.6442 1.34103 33.677 1.35767 33.7091L2.69 33.02ZM2.53999 32.67L1.15538 33.2469C1.15732 33.2516 1.15929 33.2563 1.16129 33.2609L2.53999 32.67ZM2.46356 32.4658L3.87785 31.966L3.87785 31.966L2.46356 32.4658ZM2.41 32.32L1.01729 32.8771L1.01729 32.8771L2.41 32.32ZM2.31 32.01L3.75228 31.5979L3.75228 31.5979L2.31 32.01ZM2.26499 31.8765L0.855322 32.3892L0.855325 32.3892L2.26499 31.8765ZM2.2 31.61H3.7C3.7 31.5831 3.69927 31.5562 3.69783 31.5293L2.2 31.61ZM2.2 31.34L3.69783 31.4207C3.71254 31.1475 3.65227 30.8755 3.52353 30.6341L2.2 31.34ZM2.12 24.8L3.62 24.8L3.62 24.7999L2.12 24.8ZM4.84 19.44L5.72554 20.6507C6.11124 20.3686 6.33945 19.9196 6.34 19.4417C6.34054 18.9638 6.11336 18.5143 5.7283 18.2313L4.84 19.44ZM2.83977 17.0793L4.1779 16.4015L4.1779 16.4015L2.83977 17.0793ZM2.12 14.07L0.619995 14.07L0.619995 14.071L2.12 14.07ZM2.12 8.71L3.62 8.71L3.61999 8.70775L2.12 8.71ZM4.06824 3.9765L5.13206 5.03399L4.06824 3.9765ZM8.78999 2L8.78999 0.499985L8.78328 0.500015L8.78999 2ZM59.79 2L59.7922 0.5H59.79V2ZM64.5318 3.96824L65.5924 2.90757L65.5924 2.90757L64.5318 3.96824ZM52.5097 56.38L51.4973 57.4868C52.071 58.0115 52.9504 58.011 53.5234 57.4857L52.5097 56.38ZM44.0097 47.29L42.675 47.9745C42.678 47.9803 42.681 47.9861 42.6841 47.9918L44.0097 47.29ZM42.7197 36.53L42.9581 35.0491C42.5157 34.9778 42.0646 35.1082 41.7283 35.4043C41.3921 35.7005 41.2058 36.1315 41.2205 36.5793L42.7197 36.53ZM62.3098 36.5L63.8092 36.5394C63.821 36.0922 63.6325 35.6631 63.2953 35.3692C62.958 35.0753 62.5072 34.9472 62.0658 35.02L62.3098 36.5ZM61.0697 47.17L59.7422 46.4717L59.7385 46.4788L61.0697 47.17ZM58.4497 8.52991H55.7697V11.5299H58.4497V8.52991ZM55.7697 8.52991C55.0165 8.52991 54.2941 8.82911 53.7615 9.36172L55.8828 11.483C55.8528 11.5131 55.8121 11.5299 55.7697 11.5299V8.52991ZM53.7615 9.36172C53.2288 9.89437 52.9297 10.6168 52.9297 11.3699H55.9297C55.9297 11.4123 55.9129 11.453 55.8828 11.483L53.7615 9.36172ZM52.9297 11.3699C52.9297 12.1231 53.2288 12.8454 53.7615 13.3781L55.8828 11.2568C55.9129 11.2868 55.9297 11.3275 55.9297 11.3699H52.9297ZM53.7615 13.3781C54.2941 13.9107 55.0165 14.2099 55.7697 14.2099V11.2099C55.8121 11.2099 55.8528 11.2268 55.8828 11.2568L53.7615 13.3781ZM55.7697 14.2099H58.4497V11.2099H55.7697V14.2099ZM58.4497 14.2099C59.2029 14.2099 59.9253 13.9107 60.4578 13.3781L58.3365 11.2568C58.3665 11.2268 58.4072 11.2099 58.4497 11.2099V14.2099ZM60.4578 13.3781C60.9904 12.8455 61.2897 12.1231 61.2897 11.3699H58.2897C58.2897 11.3274 58.3065 11.2868 58.3365 11.2568L60.4578 13.3781ZM61.2897 11.3699C61.2897 10.6167 60.9904 9.89431 60.4578 9.36172L58.3365 11.483C58.3065 11.4531 58.2897 11.4124 58.2897 11.3699H61.2897ZM60.4578 9.36172C59.9253 8.82913 59.2029 8.52991 58.4497 8.52991V11.5299C58.4072 11.5299 58.3665 11.513 58.3365 11.483L60.4578 9.36172ZM50.3999 8.52991H47.7199V11.5299H50.3999V8.52991ZM47.7199 8.52991C46.9666 8.52991 46.2443 8.82913 45.7117 9.36172L47.833 11.483C47.803 11.513 47.7623 11.5299 47.7199 11.5299V8.52991ZM45.7117 9.36172C45.1791 9.89431 44.8799 10.6167 44.8799 11.3699H47.8799C47.8799 11.4124 47.863 11.4531 47.833 11.483L45.7117 9.36172ZM44.8799 11.3699C44.8799 12.1231 45.1791 12.8455 45.7117 13.3781L47.833 11.2568C47.863 11.2868 47.8799 11.3274 47.8799 11.3699H44.8799ZM45.7117 13.3781C46.2443 13.9107 46.9666 14.2099 47.7199 14.2099V11.2099C47.7623 11.2099 47.803 11.2268 47.833 11.2568L45.7117 13.3781ZM47.7199 14.2099H50.3999V11.2099H47.7199V14.2099ZM50.3999 14.2099C51.1531 14.2099 51.8755 13.9107 52.4081 13.3781L50.2868 11.2568C50.3167 11.2268 50.3575 11.2099 50.3999 11.2099V14.2099ZM52.4081 13.3781C52.9407 12.8455 53.2399 12.1231 53.2399 11.3699H50.2399C50.2399 11.3274 50.2568 11.2868 50.2868 11.2568L52.4081 13.3781ZM53.2399 11.3699C53.2399 10.6167 52.9407 9.89431 52.4081 9.36172L50.2868 11.483C50.2568 11.4531 50.2399 11.4124 50.2399 11.3699H53.2399ZM52.4081 9.36172C51.8755 8.82913 51.1531 8.52991 50.3999 8.52991V11.5299C50.3575 11.5299 50.3167 11.513 50.2868 11.483L52.4081 9.36172ZM14.1899 5.84998C13.1021 5.84998 12.0388 6.17255 11.1343 6.77689L12.801 9.2713C13.2122 8.99659 13.6955 8.84998 14.1899 8.84998V5.84998ZM11.1343 6.77689C10.2298 7.38124 9.52489 8.24022 9.10861 9.24522L11.8802 10.3933C12.0695 9.93645 12.3899 9.546 12.801 9.2713L11.1343 6.77689ZM9.10861 9.24522C8.69233 10.2502 8.5834 11.3561 8.79562 12.423L11.738 11.8377C11.6415 11.3528 11.691 10.8501 11.8802 10.3933L9.10861 9.24522ZM8.79562 12.423C9.00784 13.4898 9.53163 14.4699 10.3008 15.2391L12.4222 13.1177C12.0725 12.7681 11.8344 12.3227 11.738 11.8377L8.79562 12.423ZM10.3008 15.2391C11.07 16.0083 12.05 16.5321 13.1169 16.7443L13.7022 13.8019C13.2172 13.7055 12.7718 13.4674 12.4222 13.1177L10.3008 15.2391ZM13.1169 16.7443C14.1838 16.9565 15.2897 16.8476 16.2947 16.4313L15.1466 13.6597C14.6898 13.8489 14.1871 13.8984 13.7022 13.8019L13.1169 16.7443ZM16.2947 16.4313C17.2997 16.015 18.1587 15.3101 18.763 14.4056L16.2686 12.7389C15.9939 13.15 15.6035 13.4704 15.1466 13.6597L16.2947 16.4313ZM18.763 14.4056C19.3674 13.5011 19.6899 12.4377 19.6899 11.35H16.6899C16.6899 11.8445 16.5433 12.3278 16.2686 12.7389L18.763 14.4056ZM19.6899 11.35C19.6899 9.89129 19.1105 8.49234 18.079 7.46089L15.9577 9.58221C16.4265 10.051 16.6899 10.6869 16.6899 11.35H19.6899ZM18.079 7.46089C17.0476 6.42944 15.6486 5.84998 14.1899 5.84998L14.1899 8.84998C14.853 8.84998 15.4889 9.11337 15.9577 9.58221L18.079 7.46089ZM14.1899 11.21C14.2216 11.21 14.2525 11.2194 14.2788 11.2369L12.6121 13.7313C13.0791 14.0434 13.6282 14.21 14.1899 14.21V11.21ZM14.2788 11.2369C14.3052 11.2545 14.3257 11.2795 14.3378 11.3087L11.5661 12.4568C11.7811 12.9757 12.1451 13.4193 12.6121 13.7313L14.2788 11.2369ZM14.3378 11.3087C14.3499 11.3379 14.353 11.3701 14.3469 11.4012L11.4045 10.8159C11.2949 11.3669 11.3512 11.9379 11.5661 12.4568L14.3378 11.3087ZM14.3469 11.4012C14.3407 11.4322 14.3255 11.4607 14.3031 11.4831L12.1818 9.36179C11.7846 9.75897 11.5141 10.265 11.4045 10.8159L14.3469 11.4012ZM14.3031 11.4831C14.2807 11.5055 14.2522 11.5207 14.2211 11.5269L13.6359 8.58455C13.085 8.69413 12.5789 8.96462 12.1818 9.36179L14.3031 11.4831ZM14.2211 11.5269C14.1901 11.5331 14.158 11.5299 14.1287 11.5178L15.2768 8.74616C14.7578 8.5312 14.1868 8.47496 13.6359 8.58455L14.2211 11.5269ZM14.1287 11.5178C14.0994 11.5057 14.0744 11.4851 14.0569 11.4589L16.5513 9.79216C16.2393 9.32517 15.7958 8.96113 15.2768 8.74616L14.1287 11.5178ZM14.0569 11.4589C14.0393 11.4326 14.0299 11.4016 14.0299 11.37H17.0299C17.0299 10.8083 16.8634 10.2592 16.5513 9.79216L14.0569 11.4589ZM14.0299 11.37C14.0299 11.3276 14.0468 11.2869 14.0768 11.2568L16.1981 13.3782C16.7308 12.8455 17.0299 12.1231 17.0299 11.37H14.0299ZM14.0768 11.2568C14.1068 11.2268 14.1475 11.21 14.1899 11.21V14.21C14.9431 14.21 15.6655 13.9108 16.1981 13.3782L14.0768 11.2568ZM14.1899 21.9399C13.1021 21.9399 12.0388 22.2625 11.1343 22.8669L12.801 25.3613C13.2122 25.0866 13.6955 24.9399 14.1899 24.9399V21.9399ZM11.1343 22.8669C10.2298 23.4712 9.52489 24.3302 9.10861 25.3352L11.8802 26.4832C12.0695 26.0264 12.3899 25.636 12.801 25.3613L11.1343 22.8669ZM9.10861 25.3352C8.69233 26.3402 8.5834 27.446 8.79562 28.5129L11.738 27.9277C11.6415 27.4427 11.691 26.9401 11.8802 26.4832L9.10861 25.3352ZM8.79562 28.5129C9.00784 29.5798 9.53163 30.5598 10.3008 31.329L12.4222 29.2077C12.0725 28.8581 11.8344 28.4126 11.738 27.9277L8.79562 28.5129ZM10.3008 31.329C11.07 32.0982 12.05 32.622 13.1169 32.8343L13.7022 29.8919C13.2172 29.7954 12.7718 29.5573 12.4222 29.2077L10.3008 31.329ZM13.1169 32.8343C14.1838 33.0465 15.2897 32.9376 16.2947 32.5213L15.1466 29.7496C14.6898 29.9389 14.1871 29.9884 13.7022 29.8919L13.1169 32.8343ZM16.2947 32.5213C17.2997 32.105 18.1587 31.4001 18.763 30.4956L16.2686 28.8289C15.9939 29.24 15.6035 29.5604 15.1466 29.7496L16.2947 32.5213ZM18.763 30.4956C19.3674 29.5911 19.6899 28.5277 19.6899 27.4399H16.6899C16.6899 27.9344 16.5433 28.4178 16.2686 28.8289L18.763 30.4956ZM19.6899 27.4399C19.6899 25.9813 19.1105 24.5823 18.079 23.5509L15.9577 25.6722C16.4265 26.141 16.6899 26.7769 16.6899 27.4399H19.6899ZM18.079 23.5509C17.0476 22.5194 15.6486 21.9399 14.1899 21.9399V24.9399C14.853 24.9399 15.4889 25.2033 15.9577 25.6722L18.079 23.5509ZM14.1899 27.2999C14.2216 27.2999 14.2525 27.3093 14.2788 27.3269L12.6121 29.8213C13.0791 30.1334 13.6282 30.2999 14.1899 30.2999V27.2999ZM14.2788 27.3269C14.3052 27.3445 14.3257 27.3695 14.3378 27.3987L11.5661 28.5468C11.7811 29.0657 12.1451 29.5092 12.6121 29.8213L14.2788 27.3269ZM14.3378 27.3987C14.3499 27.4279 14.353 27.4601 14.3469 27.4912L11.4045 26.9059C11.2949 27.4568 11.3512 28.0279 11.5661 28.5468L14.3378 27.3987ZM14.3469 27.4912C14.3407 27.5222 14.3255 27.5507 14.3031 27.5731L12.1818 25.4518C11.7846 25.8489 11.5141 26.355 11.4045 26.9059L14.3469 27.4912ZM14.3031 27.5731C14.2807 27.5954 14.2522 27.6107 14.2211 27.6169L13.6359 24.6745C13.085 24.7841 12.5789 25.0546 12.1818 25.4518L14.3031 27.5731ZM14.2211 27.6169C14.1901 27.623 14.158 27.6199 14.1287 27.6078L15.2768 24.8361C14.7578 24.6212 14.1868 24.5649 13.6359 24.6745L14.2211 27.6169ZM14.1287 27.6078C14.0994 27.5956 14.0744 27.5751 14.0569 27.5488L16.5513 25.8821C16.2393 25.4151 15.7958 25.0511 15.2768 24.8361L14.1287 27.6078ZM14.0569 27.5488C14.0393 27.5225 14.0299 27.4916 14.0299 27.4599H17.0299C17.0299 26.8982 16.8634 26.3492 16.5513 25.8821L14.0569 27.5488ZM14.0299 27.4599C14.0299 27.4176 14.0468 27.3769 14.0768 27.3468L16.1981 29.4681C16.7308 28.9355 17.0299 28.2131 17.0299 27.4599H14.0299ZM14.0768 27.3468C14.1068 27.3168 14.1475 27.2999 14.1899 27.2999V30.2999C14.9431 30.2999 15.6655 30.0007 16.1981 29.4681L14.0768 27.3468ZM14.1899 38.0299C13.1021 38.0299 12.0388 38.3525 11.1343 38.9568L12.801 41.4512C13.2122 41.1765 13.6955 41.0299 14.1899 41.0299V38.0299ZM11.1343 38.9568C10.2298 39.5612 9.52489 40.4202 9.10861 41.4251L11.8802 42.5732C12.0695 42.1164 12.3899 41.7259 12.801 41.4512L11.1343 38.9568ZM9.10861 41.4251C8.69233 42.4301 8.5834 43.536 8.79562 44.6029L11.738 44.0176C11.6415 43.5327 11.691 43.03 11.8802 42.5732L9.10861 41.4251ZM8.79562 44.6029C9.00784 45.6698 9.53163 46.6498 10.3008 47.419L12.4222 45.2977C12.0725 44.9481 11.8344 44.5026 11.738 44.0176L8.79562 44.6029ZM10.3008 47.419C11.07 48.1882 12.05 48.712 13.1169 48.9242L13.7022 45.9819C13.2172 45.8854 12.7718 45.6473 12.4222 45.2977L10.3008 47.419ZM13.1169 48.9242C14.1838 49.1364 15.2897 49.0275 16.2947 48.6112L15.1466 45.8396C14.6898 46.0288 14.1871 46.0783 13.7022 45.9819L13.1169 48.9242ZM16.2947 48.6112C17.2997 48.195 18.1587 47.49 18.763 46.5855L16.2686 44.9188C15.9939 45.3299 15.6035 45.6504 15.1466 45.8396L16.2947 48.6112ZM18.763 46.5855C19.3674 45.6811 19.6899 44.6177 19.6899 43.5299H16.6899C16.6899 44.0244 16.5433 44.5077 16.2686 44.9188L18.763 46.5855ZM19.6899 43.5299C19.6899 42.0712 19.1105 40.6723 18.079 39.6408L15.9577 41.7621C16.4265 42.231 16.6899 42.8669 16.6899 43.5299H19.6899ZM18.079 39.6408C17.0476 38.6094 15.6486 38.0299 14.1899 38.0299V41.0299C14.853 41.0299 15.4889 41.2933 15.9577 41.7621L18.079 39.6408ZM14.1899 43.3999C14.2216 43.3999 14.2525 43.4093 14.2788 43.4269L12.6121 45.9213C13.0791 46.2333 13.6282 46.3999 14.1899 46.3999V43.3999ZM14.2788 43.4269C14.3052 43.4445 14.3257 43.4695 14.3378 43.4987L11.5661 44.6467C11.7811 45.1657 12.1451 45.6092 12.6121 45.9213L14.2788 43.4269ZM14.3378 43.4987C14.3499 43.5279 14.353 43.56 14.3469 43.5911L11.4045 43.0058C11.2949 43.5568 11.3512 44.1278 11.5661 44.6467L14.3378 43.4987ZM14.3469 43.5911C14.3407 43.6222 14.3254 43.6507 14.3031 43.673L12.1818 41.5517C11.7846 41.9489 11.5141 42.4549 11.4045 43.0058L14.3469 43.5911ZM14.3031 43.673C14.2807 43.6954 14.2522 43.7107 14.2211 43.7168L13.6359 40.7745C13.085 40.8841 12.5789 41.1546 12.1818 41.5517L14.3031 43.673ZM14.2211 43.7168C14.1901 43.723 14.158 43.7198 14.1287 43.7077L15.2768 40.9361C14.7578 40.7211 14.1868 40.6649 13.6359 40.7745L14.2211 43.7168ZM14.1287 43.7077C14.0994 43.6956 14.0744 43.6751 14.0569 43.6488L16.5513 41.9821C16.2393 41.5151 15.7958 41.1511 15.2768 40.9361L14.1287 43.7077ZM14.0569 43.6488C14.0393 43.6225 14.0299 43.5916 14.0299 43.5599H17.0299C17.0299 42.9982 16.8634 42.4491 16.5513 41.9821L14.0569 43.6488ZM14.0299 43.5599C14.0299 43.5175 14.0468 43.4768 14.0768 43.4468L16.1981 45.5681C16.7308 45.0354 17.0299 44.3131 17.0299 43.5599H14.0299ZM14.0768 43.4468C14.1068 43.4167 14.1475 43.3999 14.1899 43.3999V46.3999C14.9431 46.3999 15.6655 46.1007 16.1981 45.5681L14.0768 43.4468ZM69.6099 44.36C69.6099 53.8704 61.9003 61.58 52.3899 61.58V64.58C63.5571 64.58 72.6099 55.5272 72.6099 44.36H69.6099ZM52.3899 61.58C42.8796 61.58 35.1699 53.8704 35.1699 44.36H32.1699C32.1699 55.5272 41.2227 64.58 52.3899 64.58V61.58ZM35.1699 44.36C35.1699 34.8497 42.8796 27.14 52.3899 27.14V24.14C41.2227 24.14 32.1699 33.1928 32.1699 44.36H35.1699ZM52.3899 27.14C61.9003 27.14 69.6099 34.8497 69.6099 44.36H72.6099C72.6099 33.1928 63.5571 24.14 52.3899 24.14V27.14ZM65 8.71V14.05H68V8.71H65ZM65.0002 14.0233C64.9856 14.8435 64.7776 15.6486 64.3931 16.3731L67.043 17.7795C67.649 16.6377 67.9768 15.369 67.9997 14.0767L65.0002 14.0233ZM64.3931 16.3731C64.0086 17.0976 63.4584 17.7211 62.7874 18.1929L64.5127 20.6471C65.5701 19.9038 66.4371 18.9212 67.043 17.7795L64.3931 16.3731ZM62.764 20.6303C63.4174 21.1087 63.9493 21.7339 64.3169 22.4556L66.9901 21.094C66.4093 19.9536 65.5687 18.9656 64.5361 18.2097L62.764 20.6303ZM64.3169 22.4556C64.6845 23.1772 64.8773 23.9751 64.88 24.7849L67.88 24.7751C67.8758 23.4953 67.571 22.2344 66.9901 21.094L64.3169 22.4556ZM64.88 24.78V29.7611H67.88V24.78H64.88ZM67.418 28.6783C66.5622 27.858 65.6393 27.107 64.6582 26.4343L62.9618 28.9086C63.8077 29.4886 64.6037 30.1363 65.342 30.844L67.418 28.6783ZM65.31 27.6715V24.78H62.31V27.6715H65.31ZM65.31 24.7801C65.31 24.0531 65.1659 23.3334 64.8861 22.6625L62.1173 23.8174C62.2445 24.1224 62.31 24.4496 62.31 24.7799L65.31 24.7801ZM64.8861 22.6625C64.6063 21.9916 64.1963 21.3829 63.6797 20.8714L61.5689 23.0033C61.8037 23.2357 61.9901 23.5124 62.1173 23.8174L64.8861 22.6625ZM63.6797 20.8714C63.1631 20.36 62.5503 19.956 61.8766 19.6828L60.7494 22.463C61.0556 22.5872 61.3341 22.7708 61.5689 23.0033L63.6797 20.8714ZM61.8766 19.6828C61.203 19.4097 60.4819 19.2728 59.755 19.2801L59.785 22.2799C60.1154 22.2766 60.4432 22.3388 60.7494 22.463L61.8766 19.6828ZM59.77 19.28H8.77V22.28H59.77V19.28ZM8.77 19.28C7.31131 19.28 5.91236 19.8595 4.88091 20.8909L7.00223 23.0122C7.47107 22.5434 8.10696 22.28 8.77 22.28V19.28ZM4.88091 20.8909C3.84946 21.9224 3.27 23.3213 3.27 24.78H6.27C6.27 24.117 6.5334 23.4811 7.00223 23.0122L4.88091 20.8909ZM3.27 24.78V30.16H6.27V24.78H3.27ZM3.27017 30.1822C3.2749 30.502 3.30677 30.8208 3.36546 31.1352L6.31453 30.5848C6.28701 30.4373 6.27206 30.2878 6.26984 30.1378L3.27017 30.1822ZM3.36599 31.138C3.41637 31.4051 3.48923 31.6673 3.58377 31.922L6.39624 30.878C6.36052 30.7817 6.33301 30.6827 6.314 30.582L3.36599 31.138ZM3.51434 31.6691C3.54391 31.8312 3.59054 31.99 3.65362 32.1427L6.42637 30.9973C6.44422 31.0405 6.45736 31.0853 6.46567 31.1309L3.51434 31.6691ZM3.63866 32.105C3.72034 32.319 3.81703 32.5268 3.92796 32.727L6.55205 31.273C6.50955 31.1963 6.47255 31.1168 6.44133 31.035L3.63866 32.105ZM3.87146 32.6141C3.9393 32.7653 4.01835 32.9112 4.10801 33.0508L6.63198 31.4292C6.62315 31.4155 6.61531 31.401 6.60855 31.3859L3.87146 32.6141ZM4.07028 32.9888C4.18017 33.1796 4.30484 33.3614 4.44312 33.5325L6.77688 31.6475C6.73711 31.5982 6.70128 31.546 6.66971 31.4912L4.07028 32.9888ZM4.38597 33.457C4.48689 33.5995 4.59672 33.7355 4.71484 33.8642L6.92514 31.8358C6.89246 31.8002 6.86203 31.7625 6.83403 31.723L4.38597 33.457ZM4.73953 33.8905L4.99954 34.1605L7.16046 32.0795L6.90045 31.8095L4.73953 33.8905ZM5.09655 34.2526C5.23794 34.3754 5.38561 34.4908 5.53899 34.5983L7.261 32.1417C7.19255 32.0937 7.12662 32.0422 7.06345 31.9874L5.09655 34.2526ZM5.43821 34.5211C5.57059 34.6317 5.70999 34.7335 5.85547 34.826L7.46454 32.294C7.42864 32.2712 7.39431 32.2461 7.36178 32.2189L5.43821 34.5211ZM5.87933 34.8408C6.06622 34.9547 6.25939 35.0581 6.45795 35.1503L7.72204 32.4297C7.62554 32.3848 7.53161 32.3346 7.44068 32.2792L5.87933 34.8408ZM6.4693 35.1556L6.6893 35.2556L7.93069 32.5244L7.71069 32.4244L6.4693 35.1556ZM6.73127 35.2739C7.01376 35.392 7.30735 35.4816 7.60766 35.5412L8.19233 32.5988C8.08828 32.5781 7.98658 32.5471 7.88872 32.5061L6.73127 35.2739ZM7.89999 35.57H8.02V32.57H7.89999V35.57ZM7.73827 35.5433C8.08864 35.6103 8.44473 35.6427 8.80142 35.64L8.77856 32.64C8.61858 32.6413 8.45887 32.6267 8.30173 32.5967L7.73827 35.5433ZM8.78999 35.64H34.9391V32.64H8.78999V35.64ZM33.6455 33.3807C33.0947 34.3191 32.6123 35.3028 32.2051 36.3248L34.992 37.4352C35.3426 36.5552 35.7581 35.7079 36.2328 34.8993L33.6455 33.3807ZM33.5986 35.38H8.78999V38.38H33.5986V35.38ZM8.78999 35.38C7.3313 35.38 5.93236 35.9595 4.90092 36.9909L7.02224 39.1122C7.49108 38.6434 8.12696 38.38 8.78999 38.38V35.38ZM4.90092 36.9909C3.86948 38.0224 3.28999 39.4213 3.28999 40.88H6.28999C6.28999 40.217 6.55339 39.5811 7.02224 39.1122L4.90092 36.9909ZM3.28999 40.88V46.23H6.28999V40.88H3.28999ZM3.29035 46.2625C3.29655 46.5488 3.32331 46.8343 3.37043 47.1168L6.32955 46.6232C6.30607 46.4825 6.29273 46.3402 6.28964 46.1975L3.29035 46.2625ZM3.37298 47.1316C3.41366 47.3613 3.46922 47.5881 3.53926 47.8105L6.40074 46.9095C6.36966 46.8108 6.34503 46.7102 6.32701 46.6084L3.37298 47.1316ZM3.52891 47.7762C3.85964 48.9212 4.55333 49.9278 5.50558 50.6445L7.30957 48.2475C6.87673 47.9217 6.56142 47.4642 6.41109 46.9438L3.52891 47.7762ZM5.50558 50.6445C6.45783 51.3612 7.6171 51.7491 8.80891 51.75L8.81109 48.75C8.26936 48.7496 7.74242 48.5733 7.30957 48.2475L5.50558 50.6445ZM8.81 51.75H33.0412V48.75H8.81V51.75ZM31.6061 50.6863C31.9065 51.6746 32.2755 52.6329 32.7073 53.5558L35.4245 52.2842C35.0526 51.4895 34.735 50.6644 34.4763 49.8137L31.6061 50.6863ZM34.0659 51.42H8.7V54.42H34.0659V51.42ZM8.70215 51.42C7.33108 51.418 6.01605 50.8757 5.04221 49.9106L2.93045 52.0414C4.46505 53.5623 6.5373 54.4169 8.69784 54.42L8.70215 51.42ZM5.04221 49.9106C4.06837 48.9454 3.51422 47.6354 3.49992 46.2644L0.500082 46.2956C0.522619 48.4561 1.39585 50.5205 2.93045 52.0414L5.04221 49.9106ZM3.5 40.861C3.50056 40.0505 3.69166 39.2515 4.05789 38.5285L1.38162 37.1729C0.802879 38.3155 0.500885 39.5782 0.5 40.859L3.5 40.861ZM4.05789 38.5285C4.42412 37.8055 4.95522 37.1787 5.60831 36.6987L3.8317 34.2813C2.79964 35.0398 1.96037 36.0303 1.38162 37.1729L4.05789 38.5285ZM5.59878 34.2744C5.44331 34.162 5.29578 34.039 5.15723 33.9064L3.08276 36.0736C3.32079 36.3014 3.57422 36.5126 3.84122 36.7056L5.59878 34.2744ZM5.14804 33.8977C5.02192 33.779 4.90489 33.6551 4.77475 33.5076L2.52524 35.4924C2.6951 35.6849 2.87807 35.881 3.09195 36.0823L5.14804 33.8977ZM4.85001 33.6L4.73002 33.44L2.32998 35.24L2.44998 35.4L4.85001 33.6ZM4.66938 33.3644C4.5919 33.2739 4.51967 33.1791 4.45303 33.0804L1.96695 34.7595C2.0975 34.9528 2.23896 35.1385 2.39062 35.3156L4.66938 33.3644ZM4.46642 33.1006L4.31643 32.8706L1.80357 34.5094L1.95356 34.7394L4.46642 33.1006ZM4.35814 32.9384L4.13813 32.5584L1.54186 34.0616L1.76186 34.4416L4.35814 32.9384ZM4.17233 32.6209L4.02234 32.3309L1.35767 33.7091L1.50766 33.9991L4.17233 32.6209ZM4.06871 32.4291L3.9187 32.0791L1.16129 33.2609L1.3113 33.6109L4.06871 32.4291ZM3.92461 32.0931C3.91515 32.0704 3.90372 32.0392 3.87785 31.966L1.04927 32.9655C1.07042 33.0254 1.10877 33.1351 1.15538 33.2469L3.92461 32.0931ZM3.87785 31.966C3.86207 31.9213 3.83388 31.8408 3.80272 31.7629L1.01729 32.8771C1.02127 32.887 1.02822 32.906 1.04927 32.9656L3.87785 31.966ZM3.80272 31.7629C3.79733 31.7494 3.79476 31.7422 3.79036 31.7283C3.7829 31.7046 3.77404 31.6741 3.75228 31.5979L0.867712 32.4221C0.905859 32.5556 0.944845 32.696 1.01729 32.8771L3.80272 31.7629ZM3.75228 31.5979C3.72236 31.4932 3.68759 31.3994 3.67465 31.3638L0.855325 32.3892C0.859483 32.4006 0.86233 32.4085 0.864968 32.4158C0.867481 32.4228 0.86905 32.4273 0.870064 32.4302C0.872216 32.4365 0.870692 32.4325 0.867713 32.4221L3.75228 31.5979ZM3.67465 31.3638C3.66548 31.3386 3.66246 31.3301 3.66044 31.3242C3.6589 31.3197 3.66215 31.3288 3.66693 31.3463C3.67573 31.3784 3.7 31.4749 3.7 31.61H0.699997C0.699997 32.0111 0.843587 32.3569 0.855322 32.3892L3.67465 31.3638ZM3.69783 31.5293C3.69588 31.4931 3.69588 31.4569 3.69783 31.4207L0.702168 31.2593C0.694429 31.403 0.694429 31.547 0.702168 31.6907L3.69783 31.5293ZM3.52353 30.6341C3.5912 30.761 3.61177 30.8704 3.61805 30.9198C3.62088 30.9421 3.62081 30.9526 3.62051 30.9428C3.62012 30.9304 3.62 30.914 3.62 30.87H0.619995C0.619995 30.9742 0.593041 31.5145 0.876468 32.0459L3.52353 30.6341ZM3.62 24.7999C3.61992 23.9914 3.81055 23.1943 4.1764 22.4734L1.50115 21.1158C0.92177 22.2575 0.61988 23.5198 0.619995 24.8001L3.62 24.7999ZM4.1764 22.4734C4.54225 21.7525 5.073 21.128 5.72554 20.6507L3.95445 18.2293C2.92107 18.9851 2.08053 19.9741 1.50115 21.1158L4.1764 22.4734ZM5.7283 18.2313C5.07522 17.7513 4.54413 17.1245 4.1779 16.4015L1.50163 17.7571C2.08037 18.8997 2.91963 19.8902 3.95169 20.6487L5.7283 18.2313ZM4.1779 16.4015C3.81167 15.6785 3.62055 14.8794 3.61999 14.069L0.619995 14.071C0.62088 15.3518 0.922896 16.6145 1.50163 17.7571L4.1779 16.4015ZM3.62 14.07V8.71H0.619995V14.07H3.62ZM3.61999 8.70775C3.61793 7.33131 4.16168 6.01019 5.13206 5.03399L3.00441 2.91902C1.4742 4.45841 0.616735 6.5417 0.619997 8.71225L3.61999 8.70775ZM5.13206 5.03399C6.10245 4.05778 7.42028 3.50615 8.79671 3.49998L8.78328 0.500015C6.61275 0.509731 4.53462 1.37963 3.00441 2.91902L5.13206 5.03399ZM8.78999 3.5H59.79V0.5H8.78999V3.5ZM59.7878 3.5C61.1695 3.50205 62.4941 4.05186 63.4711 5.0289L65.5924 2.90757C64.0539 1.36902 61.9681 0.503237 59.7922 0.500002L59.7878 3.5ZM63.4711 5.0289C64.4481 6.00593 64.9979 7.33049 65 8.71223L68 8.70777C67.9967 6.53193 67.131 4.44613 65.5924 2.90757L63.4711 5.0289ZM63.6991 17.9391C64.7305 16.9077 65.31 15.5087 65.31 14.05H62.31C62.31 14.713 62.0466 15.3489 61.5778 15.8178L63.6991 17.9391ZM65.31 14.05V8.71H62.31V14.05H65.31ZM65.31 8.71C65.31 7.25128 64.7305 5.85234 63.6991 4.82091L61.5778 6.94223C62.0466 7.41109 62.31 8.04699 62.31 8.71H65.31ZM63.6991 4.82091C62.6676 3.78947 61.2687 3.21 59.81 3.21V6.21C60.473 6.21 61.1089 6.47338 61.5778 6.94223L63.6991 4.82091ZM59.81 3.21H8.81V6.21H59.81V3.21ZM8.81 3.21C7.35131 3.21 5.95236 3.78946 4.92091 4.82091L7.04223 6.94223C7.51107 6.47339 8.14696 6.21 8.81 6.21V3.21ZM4.92091 4.82091C3.88946 5.85236 3.31 7.25131 3.31 8.71H6.31C6.31 8.04696 6.57339 7.41107 7.04223 6.94223L4.92091 4.82091ZM3.31 8.71V14.05H6.31V8.71H3.31ZM3.31 14.05C3.31 15.5087 3.88946 16.9076 4.92091 17.9391L7.04223 15.8178C6.57339 15.3489 6.31 14.713 6.31 14.05H3.31ZM4.92091 17.9391C5.95236 18.9705 7.35131 19.55 8.81 19.55V16.55C8.14695 16.55 7.51107 16.2866 7.04223 15.8178L4.92091 17.9391ZM8.81 19.55H59.81V16.55H8.81V19.55ZM59.81 19.55C61.2687 19.55 62.6676 18.9705 63.6991 17.9391L61.5778 15.8178C61.1089 16.2866 60.473 16.55 59.81 16.55V19.55ZM52.5097 56.38C53.5221 55.2732 53.5222 55.2732 53.5222 55.2732C53.5221 55.2732 53.5221 55.2731 53.522 55.2731C53.5219 55.2729 53.5216 55.2727 53.5213 55.2724C53.5205 55.2717 53.5194 55.2707 53.5178 55.2692C53.5147 55.2663 53.5098 55.2619 53.5034 55.256C53.4904 55.2441 53.4709 55.2261 53.4452 55.2025C53.3937 55.1551 53.3176 55.0849 53.22 54.9943C53.0247 54.8131 52.7434 54.5508 52.4014 54.2277C51.7167 53.5811 50.7913 52.694 49.826 51.7299C48.8584 50.7636 47.862 49.7312 47.0306 48.7919C46.1703 47.82 45.5805 47.0511 45.3354 46.5882L42.6841 47.9918C43.114 48.8039 43.9242 49.8088 44.7842 50.7803C45.673 51.7844 46.7173 52.8651 47.706 53.8526C48.6969 54.8422 49.6434 55.7495 50.3415 56.4088C50.6909 56.7388 50.9788 57.0073 51.1797 57.1937C51.2802 57.2869 51.3591 57.3597 51.4131 57.4094C51.44 57.4342 51.4608 57.4533 51.475 57.4664C51.4821 57.4729 51.4875 57.4778 51.4913 57.4813C51.4931 57.483 51.4946 57.4843 51.4956 57.4852C51.4961 57.4857 51.4965 57.4861 51.4968 57.4863C51.4969 57.4865 51.4971 57.4866 51.4972 57.4866C51.4973 57.4867 51.4973 57.4868 52.5097 56.38ZM45.3445 46.6055C45.2214 46.3655 45.0407 45.6844 44.8691 44.5599C44.709 43.5099 44.5823 42.2654 44.4849 41.058C44.3877 39.8548 44.3211 38.7087 44.2788 37.8621C44.2577 37.4393 44.2426 37.0924 44.2329 36.8518C44.2281 36.7316 44.2245 36.638 44.2222 36.5748C44.2211 36.5432 44.2202 36.5193 44.2197 36.5034C44.2194 36.4955 44.2192 36.4896 44.2191 36.4858C44.219 36.4839 44.219 36.4825 44.2189 36.4816C44.2189 36.4812 44.2189 36.4809 44.2189 36.4807C44.2189 36.4807 44.2189 36.4806 44.2189 36.4806C44.2189 36.4806 44.2189 36.4806 42.7197 36.53C41.2205 36.5793 41.2205 36.5795 41.2205 36.5796C41.2206 36.5797 41.2206 36.5799 41.2206 36.5801C41.2206 36.5804 41.2206 36.5809 41.2206 36.5816C41.2207 36.5829 41.2207 36.5847 41.2208 36.587C41.221 36.5917 41.2212 36.5984 41.2215 36.6072C41.2221 36.6248 41.223 36.6506 41.2242 36.684C41.2267 36.7509 41.2303 36.8484 41.2354 36.9729C41.2454 37.2217 41.2609 37.5783 41.2825 38.0119C41.3258 38.8781 41.3942 40.0564 41.4946 41.2995C41.5946 42.5383 41.728 43.862 41.9034 45.0123C42.0675 46.0881 42.2981 47.2395 42.675 47.9745L45.3445 46.6055ZM42.7197 36.53C42.4813 38.0109 42.4814 38.0109 42.4815 38.011C42.4816 38.011 42.4817 38.011 42.4818 38.011C42.4821 38.0111 42.4825 38.0111 42.483 38.0112C42.484 38.0114 42.4854 38.0116 42.4873 38.0119C42.491 38.0125 42.4965 38.0134 42.5037 38.0145C42.518 38.0168 42.5392 38.0202 42.5668 38.0246C42.622 38.0334 42.7029 38.0462 42.8065 38.0625C43.0138 38.0951 43.312 38.1415 43.6774 38.1972C44.4078 38.3086 45.4083 38.4572 46.4874 38.6059C48.5984 38.8969 51.156 39.21 52.5097 39.21V36.21C51.4035 36.21 49.0661 35.9331 46.8971 35.6341C45.8361 35.4878 44.8504 35.3414 44.1295 35.2315C43.7693 35.1766 43.4757 35.1309 43.2725 35.0989C43.1708 35.0829 43.0919 35.0704 43.0385 35.0619C43.0118 35.0577 42.9915 35.0544 42.978 35.0522C42.9712 35.0512 42.9662 35.0504 42.9628 35.0498C42.9612 35.0496 42.9599 35.0494 42.9592 35.0492C42.9588 35.0492 42.9585 35.0491 42.9583 35.0491C42.9582 35.0491 42.9582 35.0491 42.9581 35.0491C42.9581 35.0491 42.9581 35.0491 42.7197 36.53ZM52.5097 39.21C53.8665 39.21 56.4293 38.8886 58.5419 38.5903C59.6225 38.4377 60.6244 38.2853 61.3558 38.1711C61.7217 38.114 62.0204 38.0663 62.228 38.0329C62.3318 38.0162 62.4128 38.0031 62.4681 37.994C62.4957 37.9895 62.5169 37.9861 62.5313 37.9837C62.5385 37.9825 62.544 37.9816 62.5478 37.981C62.5497 37.9807 62.5511 37.9805 62.5521 37.9803C62.5526 37.9802 62.553 37.9802 62.5532 37.9801C62.5534 37.9801 62.5535 37.9801 62.5536 37.9801C62.5537 37.98 62.5537 37.98 62.3098 36.5C62.0658 35.02 62.0658 35.02 62.0658 35.02C62.0657 35.02 62.0657 35.02 62.0656 35.02C62.0654 35.02 62.0651 35.0201 62.0647 35.0201C62.064 35.0203 62.0627 35.0205 62.0611 35.0207C62.0577 35.0213 62.0527 35.0221 62.0459 35.0232C62.0324 35.0255 62.0121 35.0288 61.9854 35.0331C61.9319 35.0418 61.8529 35.0547 61.7511 35.0711C61.5477 35.1038 61.2537 35.1507 60.893 35.207C60.1713 35.3197 59.1845 35.4698 58.1225 35.6197C55.9502 35.9264 53.613 36.21 52.5097 36.21V39.21ZM62.3098 36.5C60.8103 36.4606 60.8103 36.4605 60.8103 36.4605C60.8103 36.4606 60.8103 36.4606 60.8103 36.4607C60.8103 36.4608 60.8103 36.4611 60.8102 36.4615C60.8102 36.4624 60.8102 36.4637 60.8101 36.4656C60.81 36.4694 60.8099 36.4752 60.8097 36.4831C60.8092 36.4988 60.8085 36.5226 60.8076 36.5539C60.8057 36.6165 60.8028 36.7094 60.7988 36.8288C60.7906 37.0675 60.7779 37.4118 60.7595 37.8314C60.7226 38.6716 60.6631 39.8086 60.5728 41.0018C60.4821 42.1993 60.362 43.4319 60.2062 44.4702C60.0387 45.5863 59.8599 46.2479 59.7422 46.4717L62.3973 47.8683C62.7846 47.1321 63.0132 45.98 63.173 44.9154C63.3444 43.7731 63.4711 42.4582 63.5642 41.2282C63.6577 39.9939 63.7188 38.8234 63.7566 37.963C63.7755 37.5323 63.7886 37.178 63.797 36.9307C63.8012 36.807 63.8043 36.7101 63.8063 36.6436C63.8072 36.6104 63.808 36.5847 63.8085 36.5672C63.8087 36.5585 63.8089 36.5517 63.809 36.5471C63.8091 36.5447 63.8091 36.5429 63.8092 36.5417C63.8092 36.541 63.8092 36.5405 63.8092 36.5401C63.8092 36.54 63.8092 36.5398 63.8092 36.5397C63.8092 36.5395 63.8092 36.5394 62.3098 36.5ZM59.7385 46.4788C59.4935 46.9505 58.9014 47.7308 58.0359 48.7158C57.1993 49.6679 56.1959 50.7131 55.2211 51.691C54.2486 52.6667 53.316 53.5638 52.6258 54.2176C52.281 54.5442 51.9975 54.8094 51.8006 54.9925C51.7022 55.0841 51.6255 55.1551 51.5736 55.2029C51.5477 55.2268 51.528 55.2449 51.515 55.257C51.5085 55.263 51.5036 55.2674 51.5004 55.2704C51.4988 55.2718 51.4977 55.2729 51.4969 55.2735C51.4966 55.2739 51.4963 55.2741 51.4962 55.2742C51.4961 55.2743 51.4961 55.2743 51.496 55.2744C51.4961 55.2744 51.4961 55.2743 52.5097 56.38C53.5234 57.4857 53.5235 57.4856 53.5236 57.4855C53.5237 57.4854 53.5238 57.4853 53.5239 57.4852C53.5242 57.4849 53.5246 57.4845 53.5252 57.4841C53.5262 57.4831 53.5276 57.4818 53.5295 57.48C53.5333 57.4766 53.5388 57.4715 53.5459 57.465C53.5602 57.4518 53.5812 57.4325 53.6084 57.4074C53.6629 57.3571 53.7424 57.2835 53.8438 57.1892C54.0464 57.0007 54.3367 56.7292 54.689 56.3955C55.3929 55.7287 56.3471 54.8108 57.3458 53.809C58.3423 52.8094 59.3945 51.7146 60.2895 50.696C61.1555 49.7104 61.9709 48.6895 62.401 47.8612L59.7385 46.4788ZM3.5 46.28V40.86H0.5V46.28H3.5ZM3.62 30.87V24.8H0.619995V30.87H3.62Z" fill="white"/>
</svg>
