<svg width="44" height="76" viewBox="0 0 44 76" fill="none" xmlns="http://www.w3.org/2000/svg">
<path d="M6.40002 72.19L6.38002 73.1898L6.39002 73.19H6.40002V72.19ZM3.46002 69.19L4.46002 69.1902V69.19H3.46002ZM3.46002 59.87V58.87H2.46002V59.87H3.46002ZM40.26 59.87H41.26V58.87H40.26V59.87ZM40.26 69.19L39.26 69.19L39.26 69.1901L40.26 69.19ZM37.31 72.19L37.2933 71.1901L37.31 73.19V72.19ZM37.33 3.45999L37.3465 2.46013L37.3383 2.45999H37.33V3.45999ZM40.28 6.39999H41.28V6.39006L41.2798 6.38013L40.28 6.39999ZM40.28 8.39999V9.39999H41.28V8.39999H40.28ZM3.46002 8.39999H2.46002V9.39999H3.46002V8.39999ZM3.46002 10.81V9.81H2.46002V10.81H3.46002ZM40.26 10.81H41.26V9.81H40.26V10.81ZM40.26 57.47V58.47H41.26V57.47H40.26ZM3.46002 57.47H2.46002V58.47H3.46002V57.47ZM37.33 1.03999V2.03999H38.33V1.03999H37.33ZM2.58163 2.62161L3.28874 3.32872L3.28874 3.32872L2.58163 2.62161ZM1 6.43999L2 6.43999L1 6.43999ZM1 69.24L2 69.24V69.24H1ZM2.58102 73.0619L1.87326 73.7684L1.87326 73.7684L2.58102 73.0619ZM6.40002 74.65L6.39818 75.65H6.40002V74.65ZM37.33 74.65L37.33 75.65L37.3319 75.65L37.33 74.65ZM42.73 69.24L41.73 69.24L41.73 69.24L42.73 69.24ZM41.1484 2.58162L40.4413 3.28873L40.4413 3.28873L41.1484 2.58162ZM37.33 1L37.33 0L36.33 0V1H37.33ZM21.8699 68.51L21.8659 67.51L21.8659 67.51L21.8699 68.51ZM24.32 66.06L23.32 66.056L23.32 66.056L24.32 66.06ZM21.8699 61.15L21.872 60.15H21.8699V61.15ZM17.0543 67.0179L16.0735 67.213L16.0735 67.213L17.0543 67.0179ZM18.3981 69.5319L19.1052 68.8248L19.1052 68.8248L18.3981 69.5319ZM26.78 66.06L27.78 66.06L27.7799 66.058L26.78 66.06ZM25.3389 62.591L24.6318 63.2982L24.6318 63.2982L25.3389 62.591ZM16.9498 7.13005L16.8597 8.12599L16.9046 8.13005H16.9498V7.13005ZM21.8698 7.13005V8.13005H21.9149L21.9598 8.12599L21.8698 7.13005ZM22.6671 6.7347L21.9288 6.06019L21.9288 6.06019L22.6671 6.7347ZM22.6671 5.07541L23.4053 4.4009L23.4053 4.4009L22.6671 5.07541ZM21.8698 4.68005L21.9598 3.68412L21.9149 3.68005H21.8698V4.68005ZM16.9498 4.68005V3.68005H16.9046L16.8597 3.68412L16.9498 4.68005ZM16.1525 5.07541L16.8908 5.74992L16.1525 5.07541ZM16.1525 6.7347L16.8908 6.06019L16.8908 6.06019L16.1525 6.7347ZM25.5498 7.13004V6.13004H25.5046L25.4597 6.13411L25.5498 7.13004ZM26.7798 7.13004L26.8698 6.13411L26.8249 6.13004H26.7798V7.13004ZM26.7798 4.68005V5.68005H26.8249L26.8698 5.67598L26.7798 4.68005ZM25.5498 4.68005L25.4597 5.67598L25.5046 5.68005H25.5498V4.68005ZM24.3135 5.40884L23.3985 5.00542L23.3985 5.00542L24.3135 5.40884ZM24.209 5.90505L23.209 5.90505L24.209 5.90505ZM24.3135 6.40125L23.3985 6.80467L23.3985 6.80467L24.3135 6.40125ZM36.5997 53.78V54.78H37.5997V53.78H36.5997ZM14.4997 53.78H13.4997V54.78H14.4997V53.78ZM14.4997 48.87V47.87H13.4997V48.87H14.4997ZM36.5997 48.87H37.5997V47.87H36.5997V48.87ZM7.13968 53.78H6.13968V54.78H7.13968V53.78ZM7.13968 48.87V47.87H6.13968V48.87H7.13968ZM12.0397 48.87H13.0397V47.87H12.0397V48.87ZM12.0397 53.78V54.78H13.0397V53.78H12.0397ZM4.67969 46.42V45.42H3.67969V46.42H4.67969ZM4.67969 56.24H3.67969V57.24H4.67969V56.24ZM39.0497 56.24V57.24H40.0497V56.24H39.0497ZM39.0497 46.42H40.0497V45.42H39.0497V46.42ZM19.96 34.46H18.96C18.96 34.8337 19.1683 35.1762 19.5002 35.3481C19.832 35.5199 20.232 35.4923 20.5372 35.2766L19.96 34.46ZM19.96 23.9L20.5372 23.0834C20.232 22.8677 19.832 22.8402 19.5002 23.012C19.1683 23.1838 18.96 23.5263 18.96 23.9H19.96ZM27.43 29.18L28.0072 29.9966C28.2723 29.8092 28.43 29.5047 28.43 29.18C28.43 28.8553 28.2723 28.5508 28.0072 28.3634L27.43 29.18ZM37.33 71.19H6.40002V73.19H37.33V71.19ZM6.42003 71.1902C5.89655 71.1797 5.39806 70.9644 5.03159 70.5904L3.60317 71.9903C4.3361 72.7382 5.33309 73.1688 6.38002 73.1898L6.42003 71.1902ZM5.03159 70.5904C4.66513 70.2165 4.45992 69.7138 4.46002 69.1902L2.46002 69.1898C2.45981 70.2369 2.87024 71.2424 3.60317 71.9903L5.03159 70.5904ZM4.46002 69.19V59.87H2.46002V69.19H4.46002ZM3.46002 60.87H40.26V58.87H3.46002V60.87ZM39.26 59.87V69.19H41.26V59.87H39.26ZM39.26 69.1901C39.2601 69.7148 39.054 70.2185 38.6861 70.5927L40.1121 71.995C40.8479 71.2467 41.2602 70.2393 41.26 69.1898L39.26 69.1901ZM38.6861 70.5927C38.3182 70.9668 37.818 71.1814 37.2933 71.1901L37.3267 73.1898C38.3759 73.1724 39.3763 72.7432 40.1121 71.995L38.6861 70.5927ZM37.31 73.19H37.33V71.19H37.31V73.19ZM6.40002 4.45999H37.33V2.45999H6.40002V4.45999ZM37.3135 4.45986C37.8313 4.46838 38.3256 4.67742 38.6924 5.04298L40.1042 3.62636C39.3706 2.89526 38.3821 2.47718 37.3465 2.46013L37.3135 4.45986ZM38.6924 5.04298C39.0592 5.40853 39.2699 5.9021 39.2802 6.41986L41.2798 6.38013C41.2592 5.34463 40.8378 4.35748 40.1042 3.62636L38.6924 5.04298ZM39.28 6.39999V8.39999H41.28V6.39999H39.28ZM40.28 7.39999H3.46002V9.39999H40.28V7.39999ZM4.46002 8.39999V6.39999H2.46002V8.39999H4.46002ZM4.46002 6.39999C4.46002 5.88546 4.6644 5.39202 5.02821 5.02821L3.614 3.614C2.87509 4.3529 2.46002 5.35506 2.46002 6.39999H4.46002ZM5.02821 5.02821C5.39203 4.66439 5.8855 4.45999 6.40002 4.45999V2.45999C5.35507 2.45999 4.35289 2.8751 3.614 3.614L5.02821 5.02821ZM3.46002 11.81H40.26V9.81H3.46002V11.81ZM39.26 10.81V57.47H41.26V10.81H39.26ZM40.26 56.47H3.46002V58.47H40.26V56.47ZM4.46002 57.47V10.81H2.46002V57.47H4.46002ZM37.33 0.0399933H6.40002V2.03999H37.33V0.0399933ZM6.40002 0.0399933C4.70264 0.0399933 3.07476 0.71427 1.87453 1.91451L3.28874 3.32872C4.1139 2.50356 5.23307 2.03999 6.40002 2.03999V0.0399933ZM1.87453 1.91451C0.674299 3.11473 0 4.7426 0 6.43999L2 6.43999C2 5.27304 2.46358 4.15388 3.28874 3.32872L1.87453 1.91451ZM0 6.43999V69.24H2V6.43999H0ZM0 69.24C-2.90075e-06 70.938 0.67372 72.5666 1.87326 73.7684L3.28878 72.3555C2.46351 71.5287 2 70.4082 2 69.24L0 69.24ZM1.87326 73.7684C3.07281 74.9701 4.70019 75.6469 6.39818 75.65L6.40187 73.65C5.23368 73.6478 4.11406 73.1823 3.28878 72.3555L1.87326 73.7684ZM6.40002 75.65H37.33V73.65H6.40002V75.65ZM37.3319 75.65C39.0299 75.6469 40.6572 74.9701 41.8567 73.7684L40.4412 72.3555C39.6159 73.1823 38.4964 73.6478 37.3282 73.65L37.3319 75.65ZM41.8567 73.7684C43.0563 72.5666 43.73 70.938 43.73 69.24L41.73 69.24C41.73 70.4082 41.2665 71.5286 40.4412 72.3555L41.8567 73.7684ZM43.73 69.24V6.39999H41.73V69.24H43.73ZM43.73 6.39999C43.73 4.7026 43.0557 3.07474 41.8555 1.87451L40.4413 3.28873C41.2664 4.11389 41.73 5.23305 41.73 6.39999H43.73ZM41.8555 1.87451C40.6553 0.674281 39.0274 0 37.33 0L37.33 2C38.497 2 39.6161 2.46357 40.4413 3.28873L41.8555 1.87451ZM36.33 1V1.03999H38.33V1H36.33ZM21.8659 67.51C21.5766 67.5112 21.2935 67.4264 21.0525 67.2665L19.9465 68.9328C20.5176 69.3119 21.1885 69.5128 21.874 69.51L21.8659 67.51ZM21.0525 67.2665C20.8116 67.1065 20.6235 66.8785 20.5123 66.6115L18.6661 67.3806C18.9297 68.0134 19.3753 68.5536 19.9465 68.9328L21.0525 67.2665ZM20.5123 66.6115C20.401 66.3445 20.3716 66.0504 20.4277 65.7667L18.4658 65.3785C18.3327 66.051 18.4024 66.7478 18.6661 67.3806L20.5123 66.6115ZM20.4277 65.7667C20.4839 65.4829 20.6231 65.2222 20.8276 65.0177L19.4134 63.6035C18.9287 64.0882 18.5988 64.706 18.4658 65.3785L20.4277 65.7667ZM20.8276 65.0177C21.0321 64.8131 21.2928 64.674 21.5766 64.6178L21.1884 62.6558C20.516 62.7889 19.8981 63.1187 19.4134 63.6035L20.8276 65.0177ZM21.5766 64.6178C21.8604 64.5617 22.1544 64.5911 22.4214 64.7023L23.1905 62.8561C22.5577 62.5925 21.8609 62.5228 21.1884 62.6558L21.5766 64.6178ZM22.4214 64.7023C22.6885 64.8136 22.9164 65.0016 23.0764 65.2426L24.7427 64.1365C24.3636 63.5654 23.8233 63.1197 23.1905 62.8561L22.4214 64.7023ZM23.0764 65.2426C23.2364 65.4836 23.3211 65.7667 23.32 66.056L25.32 66.0641C25.3227 65.3786 25.1218 64.7077 24.7427 64.1365L23.0764 65.2426ZM23.32 66.056C23.3184 66.4411 23.1647 66.8101 22.8924 67.0824L24.3066 68.4966C24.952 67.8512 25.3162 66.9769 25.32 66.0641L23.32 66.056ZM22.8924 67.0824C22.62 67.3548 22.2511 67.5085 21.8659 67.51L21.874 69.51C22.7868 69.5063 23.6611 69.1421 24.3066 68.4966L22.8924 67.0824ZM21.8699 60.15C20.7011 60.15 19.5584 60.4966 18.5865 61.146L19.6977 62.809C20.3407 62.3793 21.0966 62.15 21.8699 62.15V60.15ZM18.5865 61.146C17.6146 61.7954 16.8572 62.7185 16.4098 63.7984L18.2576 64.5637C18.5535 63.8493 19.0547 63.2386 19.6977 62.809L18.5865 61.146ZM16.4098 63.7984C15.9625 64.8783 15.8455 66.0666 16.0735 67.213L18.0351 66.8228C17.8842 66.0644 17.9617 65.2782 18.2576 64.5637L16.4098 63.7984ZM16.0735 67.213C16.3016 68.3594 16.8644 69.4125 17.6909 70.239L19.1052 68.8248C18.5583 68.278 18.186 67.5813 18.0351 66.8228L16.0735 67.213ZM17.6909 70.239C18.5175 71.0656 19.5705 71.6284 20.717 71.8565L21.1072 69.8949C20.3487 69.744 19.652 69.3716 19.1052 68.8248L17.6909 70.239ZM20.717 71.8565C21.8634 72.0845 23.0517 71.9675 24.1316 71.5201L23.3663 69.6724C22.6518 69.9683 21.8656 70.0458 21.1072 69.8949L20.717 71.8565ZM24.1316 71.5201C25.2115 71.0728 26.1345 70.3153 26.7839 69.3434L25.121 68.2323C24.6914 68.8753 24.0807 69.3765 23.3663 69.6724L24.1316 71.5201ZM26.7839 69.3434C27.4333 68.3715 27.78 67.2289 27.78 66.06H25.78C25.78 66.8334 25.5506 67.5893 25.121 68.2323L26.7839 69.3434ZM27.7799 66.058C27.7768 64.4921 27.1533 62.9912 26.046 61.8839L24.6318 63.2982C25.365 64.0313 25.7778 65.0252 25.78 66.0621L27.7799 66.058ZM26.046 61.8839C24.9388 60.7767 23.4379 60.1532 21.872 60.15L21.8679 62.15C22.9048 62.1521 23.8986 62.565 24.6318 63.2982L26.046 61.8839ZM16.9498 8.13005H21.8698V6.13005H16.9498V8.13005ZM21.9598 8.12599C22.5142 8.07585 23.0298 7.82019 23.4053 7.4092L21.9288 6.06019C21.8901 6.10255 21.8369 6.12894 21.7797 6.13412L21.9598 8.12599ZM23.4053 7.4092C23.7808 6.99824 23.989 6.46172 23.989 5.90506H21.989C21.989 5.96247 21.9675 6.0178 21.9288 6.06019L23.4053 7.4092ZM23.989 5.90506C23.989 5.34841 23.7808 4.81187 23.4053 4.4009L21.9288 5.74992C21.9675 5.7923 21.989 5.84764 21.989 5.90506H23.989ZM23.4053 4.4009C23.0298 3.98992 22.5142 3.73426 21.9598 3.68412L21.7797 5.67599C21.8369 5.68116 21.8901 5.70755 21.9288 5.74992L23.4053 4.4009ZM21.8698 3.68005H16.9498V5.68005H21.8698V3.68005ZM16.8597 3.68412C16.3053 3.73426 15.7897 3.98994 15.4142 4.4009L16.8908 5.74992C16.9295 5.70753 16.9827 5.68116 17.0398 5.67599L16.8597 3.68412ZM15.4142 4.4009C15.0388 4.81187 14.8306 5.34841 14.8306 5.90506H16.8306C16.8306 5.84764 16.852 5.7923 16.8908 5.74992L15.4142 4.4009ZM14.8306 5.90506C14.8306 6.46172 15.0388 6.99824 15.4142 7.4092L16.8908 6.06019C16.852 6.0178 16.8306 5.96247 16.8306 5.90506H14.8306ZM15.4142 7.4092C15.7897 7.82016 16.3053 8.07584 16.8597 8.12599L17.0398 6.13412C16.9827 6.12894 16.9295 6.10258 16.8908 6.06019L15.4142 7.4092ZM25.5498 8.13004H26.7798V6.13004H25.5498V8.13004ZM26.6897 8.12598C26.9982 8.15388 27.3091 8.11722 27.6027 8.01828L26.964 6.12301C26.9337 6.1332 26.9017 6.13699 26.8698 6.13411L26.6897 8.12598ZM27.6027 8.01828C27.8962 7.91936 28.166 7.76037 28.3947 7.55139L27.0457 6.07485C27.0222 6.09637 26.9943 6.11279 26.964 6.12301L27.6027 8.01828ZM28.3947 7.55139C28.6235 7.3424 28.8061 7.08808 28.931 6.80467L27.101 5.99784C27.0881 6.02712 27.0693 6.05334 27.0457 6.07485L28.3947 7.55139ZM28.931 6.80467C29.056 6.52119 29.1205 6.21481 29.1205 5.90505H27.1205C27.1205 5.93703 27.1139 5.96863 27.101 5.99784L28.931 6.80467ZM29.1205 5.90505C29.1205 5.59531 29.056 5.28891 28.931 5.00542L27.101 5.81226C27.1139 5.84145 27.1205 5.87306 27.1205 5.90505H29.1205ZM28.931 5.00542C28.8061 4.72202 28.6235 4.46769 28.3947 4.25871L27.0457 5.73524C27.0693 5.75675 27.0881 5.78297 27.101 5.81226L28.931 5.00542ZM28.3947 4.25871C28.166 4.04969 27.8962 3.89073 27.6027 3.79183L26.964 5.6871C26.9944 5.69734 27.0222 5.71375 27.0457 5.73524L28.3947 4.25871ZM27.6027 3.79183C27.3092 3.69291 26.9982 3.65621 26.6897 3.68411L26.8698 5.67598C26.9016 5.67311 26.9337 5.67689 26.964 5.6871L27.6027 3.79183ZM26.7798 3.68005H25.5498V5.68005H26.7798V3.68005ZM25.6398 3.68411C25.3313 3.65621 25.0203 3.69291 24.7268 3.79183L25.3655 5.6871C25.3958 5.67689 25.4279 5.67311 25.4597 5.67598L25.6398 3.68411ZM24.7268 3.79183C24.4333 3.89073 24.1636 4.04969 23.9348 4.25871L25.2838 5.73524C25.3073 5.71375 25.3352 5.69733 25.3655 5.6871L24.7268 3.79183ZM23.9348 4.25871C23.7061 4.46769 23.5234 4.72202 23.3985 5.00542L25.2285 5.81226C25.2414 5.78297 25.2603 5.75675 25.2838 5.73524L23.9348 4.25871ZM23.3985 5.00542C23.2735 5.28891 23.209 5.59531 23.209 5.90505L25.209 5.90505C25.209 5.87306 25.2156 5.84145 25.2285 5.81226L23.3985 5.00542ZM23.209 5.90505C23.209 6.21481 23.2735 6.52119 23.3985 6.80467L25.2285 5.99784C25.2156 5.96863 25.209 5.93703 25.209 5.90505L23.209 5.90505ZM23.3985 6.80467C23.5234 7.08808 23.7061 7.3424 23.9348 7.55139L25.2838 6.07485C25.2603 6.05334 25.2414 6.02712 25.2285 5.99784L23.3985 6.80467ZM23.9348 7.55139C24.1635 7.76037 24.4333 7.91936 24.7268 8.01828L25.3655 6.12301C25.3352 6.11279 25.3074 6.09637 25.2838 6.07485L23.9348 7.55139ZM24.7268 8.01828C25.0204 8.11722 25.3314 8.15388 25.6398 8.12598L25.4597 6.13411C25.4279 6.13699 25.3958 6.1332 25.3655 6.12301L24.7268 8.01828ZM36.5997 52.78H14.4997V54.78H36.5997V52.78ZM15.4997 53.78V48.87H13.4997V53.78H15.4997ZM14.4997 49.87H36.5997V47.87H14.4997V49.87ZM35.5997 48.87V53.78H37.5997V48.87H35.5997ZM8.13968 53.78V48.87H6.13968V53.78H8.13968ZM7.13968 49.87H12.0397V47.87H7.13968V49.87ZM11.0397 48.87V53.78H13.0397V48.87H11.0397ZM12.0397 52.78H7.13968V54.78H12.0397V52.78ZM3.67969 46.42V56.24H5.67969V46.42H3.67969ZM4.67969 57.24H39.0497V55.24H4.67969V57.24ZM40.0497 56.24V46.42H38.0497V56.24H40.0497ZM31.89 29.1801C31.89 34.6091 27.4889 39.0101 22.06 39.0101V41.0101C28.5935 41.0101 33.89 35.7136 33.89 29.1801H31.89ZM22.06 39.0101C16.631 39.0101 12.23 34.6091 12.23 29.1801H10.23C10.23 35.7136 15.5264 41.0101 22.06 41.0101V39.0101ZM12.23 29.1801C12.23 23.7511 16.631 19.3501 22.06 19.3501V17.3501C15.5264 17.3501 10.23 22.6466 10.23 29.1801H12.23ZM22.06 19.3501C27.4889 19.3501 31.89 23.7511 31.89 29.1801H33.89C33.89 22.6466 28.5935 17.3501 22.06 17.3501V19.3501ZM20.96 34.46V23.9H18.96V34.46H20.96ZM19.3828 24.7166L26.8528 29.9966L28.0072 28.3634L20.5372 23.0834L19.3828 24.7166ZM26.8528 28.3634L19.3828 33.6434L20.5372 35.2766L28.0072 29.9966L26.8528 28.3634ZM39.0497 45.42H4.67969V47.42H39.0497V45.42Z" fill="white"/>
</svg>
