<svg width="24" height="16" viewBox="0 0 24 16" fill="none" xmlns="http://www.w3.org/2000/svg">
<path d="M23.3138 4.31363C24.0948 3.53258 24.0948 2.26625 23.3138 1.4852C22.5327 0.704152 21.2664 0.704152 20.4854 1.4852L23.3138 4.31363ZM12.0001 12.7989L10.5859 14.2131L12.0001 15.6273L13.4143 14.2131L12.0001 12.7989ZM3.5148 1.4852C2.73375 0.704152 1.46742 0.704152 0.686372 1.4852C-0.0946762 2.26625 -0.0946762 3.53258 0.686372 4.31363L3.5148 1.4852ZM20.4854 1.4852L10.5859 11.3847L13.4143 14.2131L23.3138 4.31363L20.4854 1.4852ZM13.4143 11.3847L3.5148 1.4852L0.686372 4.31363L10.5859 14.2131L13.4143 11.3847Z" fill="white"/>
</svg>
