<svg width="314" height="156" viewBox="0 0 314 156" fill="none" xmlns="http://www.w3.org/2000/svg">
<path d="M127.198 70.6434V65.761H143.039V70.6434H147.272V61.5211H144.418V43.2764H129.154C129.154 49.54 128.481 56.3496 125.594 61.5211H122.965V70.6434H127.198ZM133.644 47.6127H139.608V61.5211H130.693C132.617 57.8271 133.323 52.5914 133.644 47.6127Z" fill="#2E3134"/>
<path d="M163.871 61.778V56.8635C163.871 51.7884 160.92 49.8933 156.303 49.8933C153.93 49.8933 151.589 50.5036 150.338 50.9211V54.7757C151.781 54.1975 153.673 53.6193 155.79 53.6193C158.195 53.6193 159.413 54.6793 159.413 56.2211V56.7672C158.323 56.5102 156.976 56.3496 155.757 56.3496C152.679 56.3496 148.991 57.5702 148.991 61.4889C148.991 64.5404 151.492 66.2107 154.379 66.2107C156.655 66.2107 158.419 65.5041 159.926 64.3156C160.568 65.4719 161.754 66.0501 163.326 66.0501C164.191 66.0501 165.089 65.8574 165.795 65.6004V62.6774C165.506 62.7738 165.218 62.8059 164.961 62.8059C164.384 62.8059 163.871 62.581 163.871 61.778ZM156.784 59.0156C157.714 59.0156 158.74 59.2083 159.413 59.369V61.778C158.387 62.6774 157.201 63.0307 155.95 63.0307C154.603 63.0307 153.545 62.292 153.545 61.1356C153.545 59.5617 155.148 59.0156 156.784 59.0156Z" fill="#2E3134"/>
<path d="M175.572 65.761V54.1011H180.479V50.343H166.24V54.1011H171.147V65.761H175.572Z" fill="#2E3134"/>
<path d="M196.403 65.761V50.343H191.978V57.3453C191.144 57.6987 190.278 57.8271 189.252 57.8271C187.617 57.8271 186.494 57.249 186.494 55.4181V50.343H182.037V55.8357C182.037 59.8186 184.73 61.5853 188.033 61.5853C189.573 61.5853 190.759 61.3926 191.978 60.9429V65.761H196.403Z" fill="#2E3134"/>
<path d="M204.069 65.761L210.931 57.0884V65.761H215.357V50.343H211.508L204.646 59.0156V50.343H200.188V65.761H204.069Z" fill="#2E3134"/>
<path d="M223.592 65.761V59.658H225.388L229.814 65.761H234.816L229.076 57.9556L234.367 50.343H229.365L225.452 56.0926H223.592V50.343H219.135V65.761H223.592Z" fill="#2E3134"/>
<path d="M122.965 90.3978C122.965 95.8905 127.166 98.3316 131.367 98.3316C133.323 98.3316 135.055 97.9462 136.562 97.3038V93.3529C135.439 94.0274 133.868 94.4771 132.233 94.4771C129.827 94.4771 127.519 93.128 127.519 90.1729C127.519 87.0572 129.86 85.8687 132.297 85.8687C133.772 85.8687 135.311 86.3184 136.401 87.0251V83.1063C135.022 82.3675 133.355 81.9821 131.655 81.9821C127.39 81.9821 122.965 84.4875 122.965 90.3978Z" fill="#2E3134"/>
<path d="M144.103 97.882V86.222H150.324V97.882H154.782V82.4639H139.646V97.882H144.103Z" fill="#2E3134"/>
<path d="M157.695 90.1729C157.695 95.5692 161.735 98.3316 166.193 98.3316C170.682 98.3316 174.691 95.5692 174.691 90.1729C174.691 84.7766 170.682 82.0142 166.193 82.0142C161.735 82.0142 157.695 84.7766 157.695 90.1729ZM170.169 90.1729C170.169 92.5499 168.758 94.3486 166.193 94.3486C163.659 94.3486 162.248 92.5499 162.248 90.1729C162.248 87.796 163.659 85.9972 166.193 85.9972C168.758 85.9972 170.169 87.796 170.169 90.1729Z" fill="#2E3134"/>
<path d="M182.058 97.882V91.779H183.854L188.28 97.882H193.282L187.542 90.0766L192.833 82.4639H187.831L183.918 88.2136H182.058V82.4639H177.601V97.882H182.058Z" fill="#2E3134"/>
<path d="M193.489 90.1729C193.489 95.5692 197.53 98.3316 201.988 98.3316C206.477 98.3316 210.486 95.5692 210.486 90.1729C210.486 84.7766 206.477 82.0142 201.988 82.0142C197.53 82.0142 193.489 84.7766 193.489 90.1729ZM205.964 90.1729C205.964 92.5499 204.553 94.3486 201.988 94.3486C199.454 94.3486 198.043 92.5499 198.043 90.1729C198.043 87.796 199.454 85.9972 201.988 85.9972C204.553 85.9972 205.964 87.796 205.964 90.1729Z" fill="#2E3134"/>
<path d="M225.902 79.3161V75.9755C224.203 76.907 222.631 77.1961 220.996 77.1961C219.36 77.1961 217.789 76.907 216.089 75.9755V79.3161C217.5 80.1833 219.008 80.6009 220.996 80.6009C222.984 80.6009 224.491 80.1833 225.902 79.3161ZM217.276 97.882L224.138 89.2093V97.882H228.564V82.4639H224.716L217.853 91.1366V82.4639H213.396V97.882H217.276Z" fill="#2E3134"/>
<path d="M231.476 90.3978C231.476 95.8905 235.677 98.3316 239.878 98.3316C241.834 98.3316 243.566 97.9462 245.073 97.3038V93.3529C243.951 94.0274 242.379 94.4771 240.744 94.4771C238.339 94.4771 236.03 93.128 236.03 90.1729C236.03 87.0572 238.371 85.8687 240.808 85.8687C242.283 85.8687 243.822 86.3184 244.913 87.0251V83.1063C243.534 82.3675 241.866 81.9821 240.167 81.9821C235.902 81.9821 231.476 84.4875 231.476 90.3978Z" fill="#2E3134"/>
<path d="M256.11 97.882V86.222H261.016V82.4639H246.778V86.222H251.684V97.882H256.11Z" fill="#2E3134"/>
<path d="M272.836 97.882C276.716 97.882 277.999 95.8904 277.999 93.7062C277.999 91.8432 276.941 90.6226 275.273 90.0766C276.78 89.4984 277.646 88.3099 277.646 86.5433C277.646 84.4554 276.235 82.4639 272.579 82.4639H263.408V97.882H272.836ZM267.865 91.4899H271.521C272.612 91.4899 273.574 91.8753 273.574 93.1923C273.574 94.4129 272.644 94.8305 271.521 94.8305H267.865V91.4899ZM267.833 85.5154H271.201C272.227 85.5154 273.157 85.9008 273.157 87.1857C273.157 88.3742 272.291 88.7917 271.233 88.7917H267.833V85.5154Z" fill="#2E3134"/>
<path d="M284.888 97.882L291.751 89.2093V97.882H296.176V82.4639H292.328L285.465 91.1366V82.4639H281.008V97.882H284.888Z" fill="#2E3134"/>
<path d="M303.61 97.882L307.041 93.2887H309.543V97.882H314V82.4639H305.662C301.622 82.4639 299.505 84.9693 299.505 87.8602C299.505 89.9481 300.564 91.8111 302.648 92.7105L298.607 97.882H303.61ZM304.027 87.9887C304.027 86.7039 304.957 85.9972 306.56 85.9972H309.543V89.9481H306.56C304.957 89.9481 304.027 89.2414 304.027 87.9887Z" fill="#2E3134"/>
<path d="M78.1909 105.628C62.6462 105.628 50 93.2789 50 78.0985C50 62.9219 62.6458 50.5728 78.1909 50.5728C93.7357 50.5728 106.382 62.9219 106.382 78.0985C106.382 93.2786 93.736 105.628 78.1909 105.628Z" fill="#FEFEFE"/>
<g filter="url(#filter0_d)">
<path d="M78.1909 105.628C62.6462 105.628 50 93.2789 50 78.0985C50 62.9219 62.6458 50.5728 78.1909 50.5728C93.7357 50.5728 106.382 62.9219 106.382 78.0985C106.382 93.2786 93.736 105.628 78.1909 105.628ZM78.1909 57.838C66.7473 57.838 57.4402 66.9271 57.4402 78.0985C57.4402 89.2737 66.7476 98.3624 78.1909 98.3624C89.6346 98.3624 98.9417 89.2733 98.9417 78.0985C98.9417 66.9271 89.6343 57.838 78.1909 57.838Z" fill="#47B247"/>
</g>
<path fill-rule="evenodd" clip-rule="evenodd" d="M93.4839 75.1975C93.2392 74.3585 92.4881 73.7322 91.56 73.7322C91.3558 73.7322 91.1702 73.7916 90.9843 73.8471C90.9628 73.836 88.6025 74.5345 87.3296 74.5345C82.2771 74.5345 78.1819 70.4886 78.1819 65.4976C78.1819 65.4022 78.1893 65.201 78.1806 65.1931C78.1806 65.1909 78.1819 65.189 78.1819 65.1861C78.1819 64.0758 77.2703 63.1755 76.146 63.1755C76.0076 63.1755 75.8866 63.2276 75.7552 63.2536C75.7292 63.2469 75.7735 63.2498 75.7552 63.2536C69.0483 64.6985 63.9297 70.5584 63.9297 77.6177C63.9297 85.7606 70.6115 92.3615 78.8543 92.3615C87.0971 92.3615 93.779 85.7606 93.779 77.6177C93.779 76.8284 93.6046 75.9528 93.4835 75.1975C93.48 75.175 93.5185 75.2302 93.4835 75.1975H93.4839Z" fill="#2E3134"/>
<path d="M92.8309 49.9089C91.3125 49.9089 89.903 48.9286 89.4073 47.3882C87.8575 42.5498 83.4392 39.3017 78.4203 39.3017C73.6156 39.3017 69.2607 42.368 67.5877 46.9357C66.8916 48.8255 64.8252 49.7915 62.9589 49.0857C61.0959 48.3832 60.1471 46.2795 60.8392 44.39C63.5561 36.9808 70.6209 32 78.4203 32C86.5675 32 93.7342 37.2769 96.2544 45.1283C96.8693 47.0465 95.836 49.1075 93.9451 49.7312C93.5759 49.8527 93.2 49.9095 92.8309 49.9095V49.9089Z" fill="#96C22B"/>
<defs>
<filter id="filter0_d" x="0" y="0.572754" width="156.382" height="155.055" filterUnits="userSpaceOnUse" color-interpolation-filters="sRGB">
<feFlood flood-opacity="0" result="BackgroundImageFix"/>
<feColorMatrix in="SourceAlpha" type="matrix" values="0 0 0 0 0 0 0 0 0 0 0 0 0 0 0 0 0 0 127 0"/>
<feOffset/>
<feGaussianBlur stdDeviation="25"/>
<feColorMatrix type="matrix" values="0 0 0 0 1 0 0 0 0 1 0 0 0 0 1 0 0 0 1 0"/>
<feBlend mode="normal" in2="BackgroundImageFix" result="effect1_dropShadow"/>
<feBlend mode="normal" in="SourceGraphic" in2="effect1_dropShadow" result="shape"/>
</filter>
</defs>
</svg>
